<mxfile host="65bd71144e">
    <diagram id="rzzXkk7F5bt7BDZkyTXA" name="第 1 页">
        <mxGraphModel dx="436" dy="190" grid="0" gridSize="10" guides="1" tooltips="1" connect="1" arrows="1" fold="1" page="1" pageScale="1" pageWidth="827" pageHeight="1169" background="#ffffff" math="0" shadow="0">
            <root>
                <mxCell id="0"/>
                <mxCell id="1" parent="0"/>
                <mxCell id="2" value="s0" style="rounded=0;whiteSpace=wrap;html=1;fillColor=#60a917;fontColor=#000000;strokeColor=#000000;fontSize=9;" vertex="1" parent="1">
                    <mxGeometry x="32" y="45.068965517241395" width="11.114285714285714" height="17.93103448275862" as="geometry"/>
                </mxCell>
                <mxCell id="3" value="s1" style="rounded=0;whiteSpace=wrap;html=1;fillColor=#60a917;fontColor=#000000;strokeColor=#000000;fontSize=9;" vertex="1" parent="1">
                    <mxGeometry x="43.114285714285714" y="45.068965517241395" width="11.114285714285714" height="17.93103448275862" as="geometry"/>
                </mxCell>
                <mxCell id="4" value="s2" style="rounded=0;whiteSpace=wrap;html=1;fillColor=#60a917;fontColor=#000000;strokeColor=#000000;fontSize=9;" vertex="1" parent="1">
                    <mxGeometry x="54.22857142857143" y="45.068965517241395" width="11.114285714285714" height="17.93103448275862" as="geometry"/>
                </mxCell>
                <mxCell id="5" value="s3" style="rounded=0;whiteSpace=wrap;html=1;fillColor=#60a917;fontColor=#000000;strokeColor=#000000;fontSize=9;" vertex="1" parent="1">
                    <mxGeometry x="65.34285714285713" y="45.068965517241395" width="11.114285714285714" height="17.93103448275862" as="geometry"/>
                </mxCell>
                <mxCell id="6" value="s4" style="rounded=0;whiteSpace=wrap;html=1;fillColor=#60a917;fontColor=#000000;strokeColor=#000000;fontSize=9;" vertex="1" parent="1">
                    <mxGeometry x="76.45714285714286" y="45.068965517241395" width="11.114285714285714" height="17.93103448275862" as="geometry"/>
                </mxCell>
                <mxCell id="7" value="s5" style="rounded=0;whiteSpace=wrap;html=1;fillColor=#60a917;fontColor=#000000;strokeColor=#000000;fontSize=9;" vertex="1" parent="1">
                    <mxGeometry x="87.57142857142856" y="45.068965517241395" width="11.114285714285714" height="17.93103448275862" as="geometry"/>
                </mxCell>
                <mxCell id="8" value="s6" style="rounded=0;whiteSpace=wrap;html=1;fillColor=#60a917;fontColor=#000000;strokeColor=#000000;fontSize=9;" vertex="1" parent="1">
                    <mxGeometry x="98.68571428571425" y="45.068965517241395" width="11.114285714285714" height="17.93103448275862" as="geometry"/>
                </mxCell>
                <mxCell id="9" value="s7" style="rounded=0;whiteSpace=wrap;html=1;fillColor=#60a917;fontColor=#000000;strokeColor=#000000;fontSize=9;" vertex="1" parent="1">
                    <mxGeometry x="109.79999999999998" y="45.068965517241395" width="11.114285714285714" height="17.93103448275862" as="geometry"/>
                </mxCell>
                <mxCell id="10" value="s8" style="rounded=0;whiteSpace=wrap;html=1;fillColor=#60a917;fontColor=#000000;strokeColor=#000000;fontSize=9;" vertex="1" parent="1">
                    <mxGeometry x="120.91428571428571" y="45.068965517241395" width="11.114285714285714" height="17.93103448275862" as="geometry"/>
                </mxCell>
                <mxCell id="11" value="s9" style="rounded=0;whiteSpace=wrap;html=1;fillColor=#60a917;fontColor=#000000;strokeColor=#000000;fontSize=9;" vertex="1" parent="1">
                    <mxGeometry x="132.0285714285714" y="45.068965517241395" width="11.114285714285714" height="17.93103448275862" as="geometry"/>
                </mxCell>
                <mxCell id="13" value="CP" style="rounded=0;whiteSpace=wrap;html=1;fillColor=#1ba1e2;fontColor=#000000;strokeColor=#000000;fontSize=9;" vertex="1" parent="1">
                    <mxGeometry x="143.1428571428571" y="45.068965517241395" width="22.228571428571428" height="17.93103448275862" as="geometry"/>
                </mxCell>
                <mxCell id="22" value="L2" style="rounded=0;whiteSpace=wrap;html=1;fillColor=#1ba1e2;fontColor=#000000;strokeColor=#000000;fontSize=9;" vertex="1" parent="1">
                    <mxGeometry x="209.82857142857142" y="45.068965517241395" width="44.457142857142856" height="17.93103448275862" as="geometry"/>
                </mxCell>
                <mxCell id="25" value="L1" style="rounded=0;whiteSpace=wrap;html=1;fillColor=#1ba1e2;fontColor=#000000;strokeColor=#000000;fontSize=9;" vertex="1" parent="1">
                    <mxGeometry x="165.37142857142854" y="45.068965517241395" width="44.457142857142856" height="17.93103448275862" as="geometry"/>
                </mxCell>
                <mxCell id="28" value="payload" style="rounded=0;whiteSpace=wrap;html=1;fillColor=#fa6800;fontColor=#000000;strokeColor=#000000;fontSize=9;" vertex="1" parent="1">
                    <mxGeometry x="265.4" y="45.068965517241395" width="44.457142857142856" height="17.93103448275862" as="geometry"/>
                </mxCell>
                <mxCell id="29" value="cp" style="rounded=0;whiteSpace=wrap;html=1;fillColor=#fa6800;fontColor=#000000;strokeColor=#000000;fontSize=9;" vertex="1" parent="1">
                    <mxGeometry x="254.28571428571422" y="45.068965517241395" width="11.114285714285714" height="17.93103448275862" as="geometry"/>
                </mxCell>
                <mxCell id="30" value="payload" style="rounded=0;whiteSpace=wrap;html=1;fillColor=#fa6800;fontColor=#000000;strokeColor=#000000;fontSize=9;" vertex="1" parent="1">
                    <mxGeometry x="320.97142857142853" y="45.068965517241395" width="44.457142857142856" height="17.93103448275862" as="geometry"/>
                </mxCell>
                <mxCell id="31" value="cp" style="rounded=0;whiteSpace=wrap;html=1;fillColor=#fa6800;fontColor=#000000;strokeColor=#000000;fontSize=9;" vertex="1" parent="1">
                    <mxGeometry x="309.85714285714283" y="45.068965517241395" width="11.114285714285714" height="17.93103448275862" as="geometry"/>
                </mxCell>
                <mxCell id="32" value="payload" style="rounded=0;whiteSpace=wrap;html=1;fillColor=#fa6800;fontColor=#000000;strokeColor=#000000;fontSize=9;" vertex="1" parent="1">
                    <mxGeometry x="376.54285714285714" y="45.068965517241395" width="44.457142857142856" height="17.93103448275862" as="geometry"/>
                </mxCell>
                <mxCell id="33" value="cp" style="rounded=0;whiteSpace=wrap;html=1;fillColor=#fa6800;fontColor=#000000;strokeColor=#000000;fontSize=9;" vertex="1" parent="1">
                    <mxGeometry x="365.4285714285714" y="45.068965517241395" width="11.114285714285714" height="17.93103448275862" as="geometry"/>
                </mxCell>
                <mxCell id="34" value="&lt;font color=&quot;#000000&quot; style=&quot;font-size: 10px;&quot;&gt;LTS&lt;br style=&quot;font-size: 10px;&quot;&gt;1X160&lt;br style=&quot;font-size: 10px;&quot;&gt;&lt;/font&gt;" style="text;html=1;align=center;verticalAlign=middle;resizable=0;points=[];autosize=1;strokeColor=none;fillColor=none;fontSize=10;" vertex="1" parent="1">
                    <mxGeometry x="167.8609523809523" y="13" width="47" height="36" as="geometry"/>
                </mxCell>
                <mxCell id="35" value="&lt;font color=&quot;#000000&quot; style=&quot;font-size: 10px;&quot;&gt;STS&lt;br style=&quot;font-size: 10px;&quot;&gt;1x160&lt;br style=&quot;font-size: 10px;&quot;&gt;&lt;/font&gt;" style="text;html=1;align=center;verticalAlign=middle;resizable=0;points=[];autosize=1;strokeColor=none;fillColor=none;fontSize=10;" vertex="1" parent="1">
                    <mxGeometry x="50.85857142857142" y="13" width="45" height="36" as="geometry"/>
                </mxCell>
                <mxCell id="39" value="&lt;font color=&quot;#000000&quot; style=&quot;font-size: 10px;&quot;&gt;SYMBOL&lt;br style=&quot;font-size: 10px;&quot;&gt;1X80&lt;br style=&quot;font-size: 10px;&quot;&gt;&lt;/font&gt;" style="text;html=1;align=center;verticalAlign=middle;resizable=0;points=[];autosize=1;strokeColor=none;fillColor=none;fontSize=10;" vertex="1" parent="1">
                    <mxGeometry x="249.86095238095237" y="13" width="60" height="36" as="geometry"/>
                </mxCell>
                <mxCell id="40" value="16" style="text;html=1;align=center;verticalAlign=middle;resizable=0;points=[];autosize=1;strokeColor=none;fillColor=none;fontSize=9;fontColor=#000000;" vertex="1" parent="1">
                    <mxGeometry x="20" y="56" width="28" height="23" as="geometry"/>
                </mxCell>
                <mxCell id="41" value="64" style="text;html=1;align=center;verticalAlign=middle;resizable=0;points=[];autosize=1;strokeColor=none;fillColor=none;fontSize=9;fontColor=#000000;" vertex="1" parent="1">
                    <mxGeometry x="173.60000000000002" y="56" width="28" height="23" as="geometry"/>
                </mxCell>
                <mxCell id="42" value="64" style="text;html=1;align=center;verticalAlign=middle;resizable=0;points=[];autosize=1;strokeColor=none;fillColor=none;fontSize=9;fontColor=#000000;" vertex="1" parent="1">
                    <mxGeometry x="215" y="56" width="28" height="23" as="geometry"/>
                </mxCell>
                <mxCell id="43" value="32" style="text;html=1;align=center;verticalAlign=middle;resizable=0;points=[];autosize=1;strokeColor=none;fillColor=none;fontSize=9;fontColor=#000000;" vertex="1" parent="1">
                    <mxGeometry x="140.26" y="56" width="28" height="23" as="geometry"/>
                </mxCell>
                <mxCell id="44" value="64" style="text;html=1;align=center;verticalAlign=middle;resizable=0;points=[];autosize=1;strokeColor=none;fillColor=none;fontSize=9;fontColor=#000000;" vertex="1" parent="1">
                    <mxGeometry x="273.63" y="56" width="28" height="23" as="geometry"/>
                </mxCell>
                <mxCell id="45" value="16" style="text;html=1;align=center;verticalAlign=middle;resizable=0;points=[];autosize=1;strokeColor=none;fillColor=none;fontSize=9;fontColor=#000000;" vertex="1" parent="1">
                    <mxGeometry x="243" y="56" width="28" height="23" as="geometry"/>
                </mxCell>
                <mxCell id="209" value="" style="group;fontSize=4;fontColor=#000000;strokeColor=#000000;" vertex="1" connectable="0" parent="1">
                    <mxGeometry x="30" y="130" width="405" height="17" as="geometry"/>
                </mxCell>
                <mxCell id="143" value="0" style="rounded=0;whiteSpace=wrap;html=1;strokeColor=#000000;fontSize=4;fillColor=#bac8d3;fontColor=#000000;" vertex="1" parent="209">
                    <mxGeometry width="6.328117912054311" height="17" as="geometry"/>
                </mxCell>
                <mxCell id="144" value="1" style="rounded=0;whiteSpace=wrap;html=1;strokeColor=#000000;fontSize=4;fillColor=#bac8d3;fontColor=#000000;" vertex="1" parent="209">
                    <mxGeometry x="6.328117912054311" width="6.328117912054311" height="17" as="geometry"/>
                </mxCell>
                <mxCell id="145" value="2" style="rounded=0;whiteSpace=wrap;html=1;strokeColor=#000000;fontSize=4;fillColor=#bac8d3;fontColor=#000000;" vertex="1" parent="209">
                    <mxGeometry x="12.656235824108622" width="6.328117912054311" height="17" as="geometry"/>
                </mxCell>
                <mxCell id="147" value="3" style="rounded=0;whiteSpace=wrap;html=1;strokeColor=#000000;fontSize=4;fillColor=#bac8d3;fontColor=#000000;" vertex="1" parent="209">
                    <mxGeometry x="18.984353736162934" width="6.328117912054311" height="17" as="geometry"/>
                </mxCell>
                <mxCell id="148" value="4" style="rounded=0;whiteSpace=wrap;html=1;strokeColor=#000000;fontSize=4;fillColor=#bac8d3;fontColor=#000000;" vertex="1" parent="209">
                    <mxGeometry x="25.312471648217244" width="6.328117912054311" height="17" as="geometry"/>
                </mxCell>
                <mxCell id="149" value="5" style="rounded=0;whiteSpace=wrap;html=1;strokeColor=#000000;fontSize=4;fillColor=#bac8d3;fontColor=#000000;" vertex="1" parent="209">
                    <mxGeometry x="31.640589560271554" width="6.328117912054311" height="17" as="geometry"/>
                </mxCell>
                <mxCell id="150" value="6" style="rounded=0;whiteSpace=wrap;html=1;strokeColor=#000000;fontSize=4;fillColor=#fa6800;fontColor=#000000;" vertex="1" parent="209">
                    <mxGeometry x="37.96870747232587" width="6.328117912054311" height="17" as="geometry"/>
                </mxCell>
                <mxCell id="151" value="7" style="rounded=0;whiteSpace=wrap;html=1;strokeColor=#000000;fontSize=4;fillColor=#fa6800;fontColor=#000000;" vertex="1" parent="209">
                    <mxGeometry x="44.29682538438018" width="6.328117912054311" height="17" as="geometry"/>
                </mxCell>
                <mxCell id="152" value="8" style="rounded=0;whiteSpace=wrap;html=1;strokeColor=#000000;fontSize=4;fillColor=#fa6800;fontColor=#000000;" vertex="1" parent="209">
                    <mxGeometry x="50.62494329643449" width="6.328117912054311" height="17" as="geometry"/>
                </mxCell>
                <mxCell id="153" value="9" style="rounded=0;whiteSpace=wrap;html=1;strokeColor=#000000;fontSize=4;fillColor=#fa6800;fontColor=#000000;" vertex="1" parent="209">
                    <mxGeometry x="56.953061208488805" width="6.328117912054311" height="17" as="geometry"/>
                </mxCell>
                <mxCell id="154" value="10" style="rounded=0;whiteSpace=wrap;html=1;strokeColor=#000000;fontSize=4;fillColor=#fa6800;fontColor=#000000;" vertex="1" parent="209">
                    <mxGeometry x="63.28117912054311" width="6.328117912054311" height="17" as="geometry"/>
                </mxCell>
                <mxCell id="155" value="11" style="rounded=0;whiteSpace=wrap;html=1;strokeColor=#000000;fontSize=4;fillColor=#fa6800;fontColor=#000000;" vertex="1" parent="209">
                    <mxGeometry x="69.60929703259741" width="6.328117912054311" height="17" as="geometry"/>
                </mxCell>
                <mxCell id="156" value="12" style="rounded=0;whiteSpace=wrap;html=1;strokeColor=#000000;fontSize=4;fillColor=#fa6800;fontColor=#000000;" vertex="1" parent="209">
                    <mxGeometry x="75.93741494465174" width="6.328117912054311" height="17" as="geometry"/>
                </mxCell>
                <mxCell id="157" value="13" style="rounded=0;whiteSpace=wrap;html=1;strokeColor=#000000;fontSize=4;fillColor=#fa6800;fontColor=#000000;" vertex="1" parent="209">
                    <mxGeometry x="82.26553285670606" width="6.328117912054311" height="17" as="geometry"/>
                </mxCell>
                <mxCell id="158" value="14" style="rounded=0;whiteSpace=wrap;html=1;strokeColor=#000000;fontSize=4;fillColor=#fa6800;fontColor=#000000;" vertex="1" parent="209">
                    <mxGeometry x="88.59365076876036" width="6.328117912054311" height="17" as="geometry"/>
                </mxCell>
                <mxCell id="159" value="15" style="rounded=0;whiteSpace=wrap;html=1;strokeColor=#000000;fontSize=4;fillColor=#fa6800;fontColor=#000000;" vertex="1" parent="209">
                    <mxGeometry x="94.92176868081468" width="6.328117912054311" height="17" as="geometry"/>
                </mxCell>
                <mxCell id="160" value="16" style="rounded=0;whiteSpace=wrap;html=1;strokeColor=#000000;fontSize=4;fillColor=#fa6800;fontColor=#000000;" vertex="1" parent="209">
                    <mxGeometry x="101.24988659286898" width="6.328117912054311" height="17" as="geometry"/>
                </mxCell>
                <mxCell id="161" value="17" style="rounded=0;whiteSpace=wrap;html=1;strokeColor=#000000;fontSize=4;fillColor=#fa6800;fontColor=#000000;" vertex="1" parent="209">
                    <mxGeometry x="107.5780045049233" width="6.328117912054311" height="17" as="geometry"/>
                </mxCell>
                <mxCell id="162" value="18" style="rounded=0;whiteSpace=wrap;html=1;strokeColor=#000000;fontSize=4;fillColor=#fa6800;fontColor=#000000;" vertex="1" parent="209">
                    <mxGeometry x="113.90612241697761" width="6.328117912054311" height="17" as="geometry"/>
                </mxCell>
                <mxCell id="163" value="19" style="rounded=0;whiteSpace=wrap;html=1;strokeColor=#000000;fontSize=4;fillColor=#fa6800;fontColor=#000000;" vertex="1" parent="209">
                    <mxGeometry x="120.2342403290319" width="6.328117912054311" height="17" as="geometry"/>
                </mxCell>
                <mxCell id="164" value="20" style="rounded=0;whiteSpace=wrap;html=1;strokeColor=#000000;fontSize=4;fillColor=#fa6800;fontColor=#000000;" vertex="1" parent="209">
                    <mxGeometry x="126.56235824108622" width="6.328117912054311" height="17" as="geometry"/>
                </mxCell>
                <mxCell id="165" value="21" style="rounded=0;whiteSpace=wrap;html=1;strokeColor=#000000;fontSize=4;fillColor=#fa6800;fontColor=#000000;" vertex="1" parent="209">
                    <mxGeometry x="132.89047615314053" width="6.328117912054311" height="17" as="geometry"/>
                </mxCell>
                <mxCell id="166" value="22" style="rounded=0;whiteSpace=wrap;html=1;strokeColor=#000000;fontSize=4;fillColor=#fa6800;fontColor=#000000;" vertex="1" parent="209">
                    <mxGeometry x="139.21859406519482" width="6.328117912054311" height="17" as="geometry"/>
                </mxCell>
                <mxCell id="167" value="23" style="rounded=0;whiteSpace=wrap;html=1;strokeColor=#000000;fontSize=4;fillColor=#fa6800;fontColor=#000000;" vertex="1" parent="209">
                    <mxGeometry x="145.54671197724917" width="6.328117912054311" height="17" as="geometry"/>
                </mxCell>
                <mxCell id="168" value="24" style="rounded=0;whiteSpace=wrap;html=1;strokeColor=#000000;fontSize=4;fillColor=#fa6800;fontColor=#000000;" vertex="1" parent="209">
                    <mxGeometry x="151.87482988930347" width="6.328117912054311" height="17" as="geometry"/>
                </mxCell>
                <mxCell id="169" value="25" style="rounded=0;whiteSpace=wrap;html=1;strokeColor=#000000;fontSize=4;fillColor=#fa6800;fontColor=#000000;" vertex="1" parent="209">
                    <mxGeometry x="158.2029478013578" width="6.328117912054311" height="17" as="geometry"/>
                </mxCell>
                <mxCell id="170" value="26" style="rounded=0;whiteSpace=wrap;html=1;strokeColor=#000000;fontSize=4;fillColor=#fa6800;fontColor=#000000;" vertex="1" parent="209">
                    <mxGeometry x="164.53106571341212" width="6.328117912054311" height="17" as="geometry"/>
                </mxCell>
                <mxCell id="171" value="27" style="rounded=0;whiteSpace=wrap;html=1;strokeColor=#000000;fontSize=4;fillColor=#fa6800;fontColor=#000000;" vertex="1" parent="209">
                    <mxGeometry x="170.8591836254664" width="6.328117912054311" height="17" as="geometry"/>
                </mxCell>
                <mxCell id="172" value="28" style="rounded=0;whiteSpace=wrap;html=1;strokeColor=#000000;fontSize=4;fillColor=#fa6800;fontColor=#000000;" vertex="1" parent="209">
                    <mxGeometry x="177.1873015375207" width="6.328117912054311" height="17" as="geometry"/>
                </mxCell>
                <mxCell id="173" value="29" style="rounded=0;whiteSpace=wrap;html=1;strokeColor=#000000;fontSize=4;fillColor=#fa6800;fontColor=#000000;" vertex="1" parent="209">
                    <mxGeometry x="183.51541944957503" width="6.328117912054311" height="17" as="geometry"/>
                </mxCell>
                <mxCell id="174" value="30" style="rounded=0;whiteSpace=wrap;html=1;strokeColor=#000000;fontSize=4;fillColor=#fa6800;fontColor=#000000;" vertex="1" parent="209">
                    <mxGeometry x="189.84353736162936" width="6.328117912054311" height="17" as="geometry"/>
                </mxCell>
                <mxCell id="175" value="31" style="rounded=0;whiteSpace=wrap;html=1;strokeColor=#000000;fontSize=4;fillColor=#fa6800;fontColor=#000000;" vertex="1" parent="209">
                    <mxGeometry x="196.17165527368363" width="6.328117912054311" height="17" as="geometry"/>
                </mxCell>
                <mxCell id="176" value="32" style="rounded=0;whiteSpace=wrap;html=1;strokeColor=#000000;fontSize=4;fillColor=#fa6800;fontColor=#000000;" vertex="1" parent="209">
                    <mxGeometry x="202.49977318573795" width="6.328117912054311" height="17" as="geometry"/>
                </mxCell>
                <mxCell id="177" value="33" style="rounded=0;whiteSpace=wrap;html=1;strokeColor=#000000;fontSize=4;fillColor=#fa6800;fontColor=#000000;" vertex="1" parent="209">
                    <mxGeometry x="208.8278910977923" width="6.328117912054311" height="17" as="geometry"/>
                </mxCell>
                <mxCell id="178" value="34" style="rounded=0;whiteSpace=wrap;html=1;strokeColor=#000000;fontSize=4;fillColor=#fa6800;fontColor=#000000;" vertex="1" parent="209">
                    <mxGeometry x="215.1560090098466" width="6.328117912054311" height="17" as="geometry"/>
                </mxCell>
                <mxCell id="179" value="35" style="rounded=0;whiteSpace=wrap;html=1;strokeColor=#000000;fontSize=4;fillColor=#fa6800;fontColor=#000000;" vertex="1" parent="209">
                    <mxGeometry x="221.4841269219009" width="6.328117912054311" height="17" as="geometry"/>
                </mxCell>
                <mxCell id="180" value="36" style="rounded=0;whiteSpace=wrap;html=1;strokeColor=#000000;fontSize=4;fillColor=#fa6800;fontColor=#000000;" vertex="1" parent="209">
                    <mxGeometry x="227.81224483395522" width="6.328117912054311" height="17" as="geometry"/>
                </mxCell>
                <mxCell id="181" value="37" style="rounded=0;whiteSpace=wrap;html=1;strokeColor=#000000;fontSize=4;fillColor=#fa6800;fontColor=#000000;" vertex="1" parent="209">
                    <mxGeometry x="234.14036274600952" width="6.328117912054311" height="17" as="geometry"/>
                </mxCell>
                <mxCell id="182" value="38" style="rounded=0;whiteSpace=wrap;html=1;strokeColor=#000000;fontSize=4;fillColor=#fa6800;fontColor=#000000;" vertex="1" parent="209">
                    <mxGeometry x="240.4684806580638" width="6.328117912054311" height="17" as="geometry"/>
                </mxCell>
                <mxCell id="183" value="39" style="rounded=0;whiteSpace=wrap;html=1;strokeColor=#000000;fontSize=4;fillColor=#fa6800;fontColor=#000000;" vertex="1" parent="209">
                    <mxGeometry x="246.79659857011814" width="6.328117912054311" height="17" as="geometry"/>
                </mxCell>
                <mxCell id="184" value="40" style="rounded=0;whiteSpace=wrap;html=1;strokeColor=#000000;fontSize=4;fillColor=#fa6800;fontColor=#000000;" vertex="1" parent="209">
                    <mxGeometry x="253.12471648217243" width="6.328117912054311" height="17" as="geometry"/>
                </mxCell>
                <mxCell id="185" value="41" style="rounded=0;whiteSpace=wrap;html=1;strokeColor=#000000;fontSize=4;fillColor=#fa6800;fontColor=#000000;" vertex="1" parent="209">
                    <mxGeometry x="259.4528343942268" width="6.328117912054311" height="17" as="geometry"/>
                </mxCell>
                <mxCell id="187" value="42" style="rounded=0;whiteSpace=wrap;html=1;strokeColor=#000000;fontSize=4;fillColor=#fa6800;fontColor=#000000;" vertex="1" parent="209">
                    <mxGeometry x="265.7823131918536" width="6.328117912054311" height="17" as="geometry"/>
                </mxCell>
                <mxCell id="188" value="43" style="rounded=0;whiteSpace=wrap;html=1;strokeColor=#000000;fontSize=4;fillColor=#fa6800;fontColor=#000000;" vertex="1" parent="209">
                    <mxGeometry x="272.11043110390784" width="6.328117912054311" height="17" as="geometry"/>
                </mxCell>
                <mxCell id="189" value="44" style="rounded=0;whiteSpace=wrap;html=1;strokeColor=#000000;fontSize=4;fillColor=#fa6800;fontColor=#000000;" vertex="1" parent="209">
                    <mxGeometry x="278.4385490159621" width="6.328117912054311" height="17" as="geometry"/>
                </mxCell>
                <mxCell id="190" value="45" style="rounded=0;whiteSpace=wrap;html=1;strokeColor=#000000;fontSize=4;fillColor=#fa6800;fontColor=#000000;" vertex="1" parent="209">
                    <mxGeometry x="284.7666669280165" width="6.328117912054311" height="17" as="geometry"/>
                </mxCell>
                <mxCell id="191" value="46" style="rounded=0;whiteSpace=wrap;html=1;strokeColor=#000000;fontSize=4;fillColor=#fa6800;fontColor=#000000;" vertex="1" parent="209">
                    <mxGeometry x="291.0947848400708" width="6.328117912054311" height="17" as="geometry"/>
                </mxCell>
                <mxCell id="192" value="47" style="rounded=0;whiteSpace=wrap;html=1;strokeColor=#000000;fontSize=4;fillColor=#fa6800;fontColor=#000000;" vertex="1" parent="209">
                    <mxGeometry x="297.4229027521251" width="6.328117912054311" height="17" as="geometry"/>
                </mxCell>
                <mxCell id="193" value="48" style="rounded=0;whiteSpace=wrap;html=1;strokeColor=#000000;fontSize=4;fillColor=#fa6800;fontColor=#000000;" vertex="1" parent="209">
                    <mxGeometry x="303.7510206641794" width="6.328117912054311" height="17" as="geometry"/>
                </mxCell>
                <mxCell id="194" value="49" style="rounded=0;whiteSpace=wrap;html=1;strokeColor=#000000;fontSize=4;fillColor=#fa6800;fontColor=#000000;" vertex="1" parent="209">
                    <mxGeometry x="310.07913857623373" width="6.328117912054311" height="17" as="geometry"/>
                </mxCell>
                <mxCell id="195" value="50" style="rounded=0;whiteSpace=wrap;html=1;strokeColor=#000000;fontSize=4;fillColor=#fa6800;fontColor=#000000;" vertex="1" parent="209">
                    <mxGeometry x="316.40725648828806" width="6.328117912054311" height="17" as="geometry"/>
                </mxCell>
                <mxCell id="196" value="51" style="rounded=0;whiteSpace=wrap;html=1;strokeColor=#000000;fontSize=4;fillColor=#fa6800;fontColor=#000000;" vertex="1" parent="209">
                    <mxGeometry x="322.7353744003423" width="6.328117912054311" height="17" as="geometry"/>
                </mxCell>
                <mxCell id="197" value="52" style="rounded=0;whiteSpace=wrap;html=1;strokeColor=#000000;fontSize=4;fillColor=#fa6800;fontColor=#000000;" vertex="1" parent="209">
                    <mxGeometry x="329.06349231239665" width="6.328117912054311" height="17" as="geometry"/>
                </mxCell>
                <mxCell id="198" value="53" style="rounded=0;whiteSpace=wrap;html=1;strokeColor=#000000;fontSize=4;fillColor=#fa6800;fontColor=#000000;" vertex="1" parent="209">
                    <mxGeometry x="335.39161022445103" width="6.328117912054311" height="17" as="geometry"/>
                </mxCell>
                <mxCell id="199" value="54" style="rounded=0;whiteSpace=wrap;html=1;strokeColor=#000000;fontSize=4;fillColor=#fa6800;fontColor=#000000;" vertex="1" parent="209">
                    <mxGeometry x="341.71972813650524" width="6.328117912054311" height="17" as="geometry"/>
                </mxCell>
                <mxCell id="200" value="55" style="rounded=0;whiteSpace=wrap;html=1;strokeColor=#000000;fontSize=4;fillColor=#fa6800;fontColor=#000000;" vertex="1" parent="209">
                    <mxGeometry x="348.04784604855956" width="6.328117912054311" height="17" as="geometry"/>
                </mxCell>
                <mxCell id="201" value="56" style="rounded=0;whiteSpace=wrap;html=1;strokeColor=#000000;fontSize=4;fillColor=#fa6800;fontColor=#000000;" vertex="1" parent="209">
                    <mxGeometry x="354.3759639606139" width="6.328117912054311" height="17" as="geometry"/>
                </mxCell>
                <mxCell id="202" value="57" style="rounded=0;whiteSpace=wrap;html=1;strokeColor=#000000;fontSize=4;fillColor=#fa6800;fontColor=#000000;" vertex="1" parent="209">
                    <mxGeometry x="360.7040818726682" width="6.328117912054311" height="17" as="geometry"/>
                </mxCell>
                <mxCell id="203" value="58" style="rounded=0;whiteSpace=wrap;html=1;strokeColor=#000000;fontSize=4;fillColor=#fa6800;fontColor=#000000;" vertex="1" parent="209">
                    <mxGeometry x="367.0321997847224" width="6.328117912054311" height="17" as="geometry"/>
                </mxCell>
                <mxCell id="204" value="59" style="rounded=0;whiteSpace=wrap;html=1;strokeColor=#000000;fontSize=4;fillColor=#bac8d3;fontColor=#000000;" vertex="1" parent="209">
                    <mxGeometry x="373.35941043972855" width="6.328117912054311" height="17" as="geometry"/>
                </mxCell>
                <mxCell id="205" value="60" style="rounded=0;whiteSpace=wrap;html=1;strokeColor=#000000;fontSize=4;fillColor=#bac8d3;fontColor=#000000;" vertex="1" parent="209">
                    <mxGeometry x="379.6875283517828" width="6.328117912054311" height="17" as="geometry"/>
                </mxCell>
                <mxCell id="206" value="61" style="rounded=0;whiteSpace=wrap;html=1;strokeColor=#000000;fontSize=4;fillColor=#bac8d3;fontColor=#000000;" vertex="1" parent="209">
                    <mxGeometry x="386.0156462638372" width="6.328117912054311" height="17" as="geometry"/>
                </mxCell>
                <mxCell id="207" value="62" style="rounded=0;whiteSpace=wrap;html=1;strokeColor=#000000;fontSize=4;fillColor=#bac8d3;fontColor=#000000;" vertex="1" parent="209">
                    <mxGeometry x="392.34376417589147" width="6.328117912054311" height="17" as="geometry"/>
                </mxCell>
                <mxCell id="208" value="63" style="rounded=0;whiteSpace=wrap;html=1;strokeColor=#000000;fontSize=4;fillColor=#bac8d3;fontColor=#000000;" vertex="1" parent="209">
                    <mxGeometry x="398.6718820879457" width="6.328117912054311" height="17" as="geometry"/>
                </mxCell>
                <mxCell id="210" value="" style="group;fontSize=3;fontColor=#000000;strokeColor=#000000;container=0;" vertex="1" connectable="0" parent="1">
                    <mxGeometry x="29.56" y="286" width="405" height="17" as="geometry"/>
                </mxCell>
                <mxCell id="211" value="0" style="rounded=0;whiteSpace=wrap;html=1;strokeColor=#000000;fontSize=3;fillColor=#bac8d3;fontColor=#000000;" vertex="1" parent="1">
                    <mxGeometry x="29.56" y="286" width="6.328117912054311" height="17" as="geometry"/>
                </mxCell>
                <mxCell id="212" value="1" style="rounded=0;whiteSpace=wrap;html=1;strokeColor=#000000;fontSize=3;fillColor=#bac8d3;fontColor=#000000;" vertex="1" parent="1">
                    <mxGeometry x="35.88811791205431" y="286" width="6.328117912054311" height="17" as="geometry"/>
                </mxCell>
                <mxCell id="213" value="2" style="rounded=0;whiteSpace=wrap;html=1;strokeColor=#000000;fontSize=3;fillColor=#bac8d3;fontColor=#000000;" vertex="1" parent="1">
                    <mxGeometry x="42.21623582410862" y="286" width="6.328117912054311" height="17" as="geometry"/>
                </mxCell>
                <mxCell id="214" value="3" style="rounded=0;whiteSpace=wrap;html=1;strokeColor=#000000;fontSize=3;fillColor=#bac8d3;fontColor=#000000;" vertex="1" parent="1">
                    <mxGeometry x="48.54435373616293" y="286" width="6.328117912054311" height="17" as="geometry"/>
                </mxCell>
                <mxCell id="215" value="4" style="rounded=0;whiteSpace=wrap;html=1;strokeColor=#000000;fontSize=3;fillColor=#bac8d3;fontColor=#000000;" vertex="1" parent="1">
                    <mxGeometry x="54.87247164821724" y="286" width="6.328117912054311" height="17" as="geometry"/>
                </mxCell>
                <mxCell id="216" value="5" style="rounded=0;whiteSpace=wrap;html=1;strokeColor=#000000;fontSize=3;fillColor=#bac8d3;fontColor=#000000;" vertex="1" parent="1">
                    <mxGeometry x="61.20058956027155" y="286" width="6.328117912054311" height="17" as="geometry"/>
                </mxCell>
                <mxCell id="217" value="6" style="rounded=0;whiteSpace=wrap;html=1;strokeColor=#000000;fontSize=3;fillColor=#fa6800;fontColor=#000000;" vertex="1" parent="1">
                    <mxGeometry x="67.52870747232586" y="286" width="6.328117912054311" height="17" as="geometry"/>
                </mxCell>
                <mxCell id="218" value="7" style="rounded=0;whiteSpace=wrap;html=1;strokeColor=#000000;fontSize=3;fillColor=#fa6800;fontColor=#000000;" vertex="1" parent="1">
                    <mxGeometry x="73.85682538438019" y="286" width="6.328117912054311" height="17" as="geometry"/>
                </mxCell>
                <mxCell id="219" value="8" style="rounded=0;whiteSpace=wrap;html=1;strokeColor=#000000;fontSize=3;fillColor=#fa6800;fontColor=#000000;" vertex="1" parent="1">
                    <mxGeometry x="80.18494329643448" y="286" width="6.328117912054311" height="17" as="geometry"/>
                </mxCell>
                <mxCell id="220" value="9" style="rounded=0;whiteSpace=wrap;html=1;strokeColor=#000000;fontSize=3;fillColor=#fa6800;fontColor=#000000;" vertex="1" parent="1">
                    <mxGeometry x="86.5130612084888" y="286" width="6.328117912054311" height="17" as="geometry"/>
                </mxCell>
                <mxCell id="221" value="10" style="rounded=0;whiteSpace=wrap;html=1;strokeColor=#000000;fontSize=3;fillColor=#fa6800;fontColor=#000000;" vertex="1" parent="1">
                    <mxGeometry x="92.8411791205431" y="286" width="6.328117912054311" height="17" as="geometry"/>
                </mxCell>
                <mxCell id="222" value="11" style="rounded=0;whiteSpace=wrap;html=1;strokeColor=#000000;fontSize=3;fillColor=#1ba1e2;fontColor=#000000;" vertex="1" parent="1">
                    <mxGeometry x="99.16929703259741" y="286" width="6.328117912054311" height="17" as="geometry"/>
                </mxCell>
                <mxCell id="223" value="12" style="rounded=0;whiteSpace=wrap;html=1;strokeColor=#000000;fontSize=3;fillColor=#fa6800;fontColor=#000000;" vertex="1" parent="1">
                    <mxGeometry x="105.49741494465174" y="286" width="6.328117912054311" height="17" as="geometry"/>
                </mxCell>
                <mxCell id="224" value="13" style="rounded=0;whiteSpace=wrap;html=1;strokeColor=#000000;fontSize=3;fillColor=#fa6800;fontColor=#000000;" vertex="1" parent="1">
                    <mxGeometry x="111.82553285670606" y="286" width="6.328117912054311" height="17" as="geometry"/>
                </mxCell>
                <mxCell id="225" value="14" style="rounded=0;whiteSpace=wrap;html=1;strokeColor=#000000;fontSize=3;fillColor=#fa6800;fontColor=#000000;" vertex="1" parent="1">
                    <mxGeometry x="118.15365076876036" y="286" width="6.328117912054311" height="17" as="geometry"/>
                </mxCell>
                <mxCell id="226" value="15" style="rounded=0;whiteSpace=wrap;html=1;strokeColor=#000000;fontSize=3;fillColor=#fa6800;fontColor=#000000;" vertex="1" parent="1">
                    <mxGeometry x="124.48176868081468" y="286" width="6.328117912054311" height="17" as="geometry"/>
                </mxCell>
                <mxCell id="227" value="16" style="rounded=0;whiteSpace=wrap;html=1;strokeColor=#000000;fontSize=3;fillColor=#fa6800;fontColor=#000000;" vertex="1" parent="1">
                    <mxGeometry x="130.80988659286896" y="286" width="6.328117912054311" height="17" as="geometry"/>
                </mxCell>
                <mxCell id="228" value="17" style="rounded=0;whiteSpace=wrap;html=1;strokeColor=#000000;fontSize=3;fillColor=#fa6800;fontColor=#000000;" vertex="1" parent="1">
                    <mxGeometry x="137.1380045049233" y="286" width="6.328117912054311" height="17" as="geometry"/>
                </mxCell>
                <mxCell id="229" value="18" style="rounded=0;whiteSpace=wrap;html=1;strokeColor=#000000;fontSize=3;fillColor=#fa6800;fontColor=#000000;" vertex="1" parent="1">
                    <mxGeometry x="143.4661224169776" y="286" width="6.328117912054311" height="17" as="geometry"/>
                </mxCell>
                <mxCell id="230" value="19" style="rounded=0;whiteSpace=wrap;html=1;strokeColor=#000000;fontSize=3;fillColor=#fa6800;fontColor=#000000;" vertex="1" parent="1">
                    <mxGeometry x="149.7942403290319" y="286" width="6.328117912054311" height="17" as="geometry"/>
                </mxCell>
                <mxCell id="231" value="20" style="rounded=0;whiteSpace=wrap;html=1;strokeColor=#000000;fontSize=3;fillColor=#fa6800;fontColor=#000000;" vertex="1" parent="1">
                    <mxGeometry x="156.1223582410862" y="286" width="6.328117912054311" height="17" as="geometry"/>
                </mxCell>
                <mxCell id="232" value="21" style="rounded=0;whiteSpace=wrap;html=1;strokeColor=#000000;fontSize=3;fillColor=#fa6800;fontColor=#000000;" vertex="1" parent="1">
                    <mxGeometry x="162.45047615314053" y="286" width="6.328117912054311" height="17" as="geometry"/>
                </mxCell>
                <mxCell id="233" value="22" style="rounded=0;whiteSpace=wrap;html=1;strokeColor=#000000;fontSize=3;fillColor=#fa6800;fontColor=#000000;" vertex="1" parent="1">
                    <mxGeometry x="168.77859406519482" y="286" width="6.328117912054311" height="17" as="geometry"/>
                </mxCell>
                <mxCell id="234" value="23" style="rounded=0;whiteSpace=wrap;html=1;strokeColor=#000000;fontSize=3;fillColor=#fa6800;fontColor=#000000;" vertex="1" parent="1">
                    <mxGeometry x="175.10671197724918" y="286" width="6.328117912054311" height="17" as="geometry"/>
                </mxCell>
                <mxCell id="235" value="24" style="rounded=0;whiteSpace=wrap;html=1;strokeColor=#000000;fontSize=3;fillColor=#fa6800;fontColor=#000000;" vertex="1" parent="1">
                    <mxGeometry x="181.43482988930347" y="286" width="6.328117912054311" height="17" as="geometry"/>
                </mxCell>
                <mxCell id="236" value="25" style="rounded=0;whiteSpace=wrap;html=1;strokeColor=#000000;fontSize=3;fillColor=#1ba1e2;fontColor=#000000;" vertex="1" parent="1">
                    <mxGeometry x="187.7629478013578" y="286" width="6.328117912054311" height="17" as="geometry"/>
                </mxCell>
                <mxCell id="237" value="26" style="rounded=0;whiteSpace=wrap;html=1;strokeColor=#000000;fontSize=3;fillColor=#fa6800;fontColor=#000000;" vertex="1" parent="1">
                    <mxGeometry x="194.09106571341212" y="286" width="6.328117912054311" height="17" as="geometry"/>
                </mxCell>
                <mxCell id="238" value="27" style="rounded=0;whiteSpace=wrap;html=1;strokeColor=#000000;fontSize=3;fillColor=#fa6800;fontColor=#000000;" vertex="1" parent="1">
                    <mxGeometry x="200.4191836254664" y="286" width="6.328117912054311" height="17" as="geometry"/>
                </mxCell>
                <mxCell id="239" value="28" style="rounded=0;whiteSpace=wrap;html=1;strokeColor=#000000;fontSize=3;fillColor=#fa6800;fontColor=#000000;" vertex="1" parent="1">
                    <mxGeometry x="206.7473015375207" y="286" width="6.328117912054311" height="17" as="geometry"/>
                </mxCell>
                <mxCell id="240" value="29" style="rounded=0;whiteSpace=wrap;html=1;strokeColor=#000000;fontSize=3;fillColor=#fa6800;fontColor=#000000;" vertex="1" parent="1">
                    <mxGeometry x="213.07541944957504" y="286" width="6.328117912054311" height="17" as="geometry"/>
                </mxCell>
                <mxCell id="241" value="30" style="rounded=0;whiteSpace=wrap;html=1;strokeColor=#000000;fontSize=3;fillColor=#fa6800;fontColor=#000000;" vertex="1" parent="1">
                    <mxGeometry x="219.40353736162936" y="286" width="6.328117912054311" height="17" as="geometry"/>
                </mxCell>
                <mxCell id="242" value="31" style="rounded=0;whiteSpace=wrap;html=1;strokeColor=#000000;fontSize=3;fillColor=#fa6800;fontColor=#000000;" vertex="1" parent="1">
                    <mxGeometry x="225.73165527368363" y="286" width="6.328117912054311" height="17" as="geometry"/>
                </mxCell>
                <mxCell id="243" value="32" style="rounded=0;whiteSpace=wrap;html=1;strokeColor=#000000;fontSize=3;fillColor=#6a00ff;fontColor=#000000;" vertex="1" parent="1">
                    <mxGeometry x="232.05977318573795" y="286" width="6.328117912054311" height="17" as="geometry"/>
                </mxCell>
                <mxCell id="244" value="33" style="rounded=0;whiteSpace=wrap;html=1;strokeColor=#000000;fontSize=3;fillColor=#fa6800;fontColor=#000000;" vertex="1" parent="1">
                    <mxGeometry x="238.3878910977923" y="286" width="6.328117912054311" height="17" as="geometry"/>
                </mxCell>
                <mxCell id="245" value="34" style="rounded=0;whiteSpace=wrap;html=1;strokeColor=#000000;fontSize=3;fillColor=#fa6800;fontColor=#000000;" vertex="1" parent="1">
                    <mxGeometry x="244.7160090098466" y="286" width="6.328117912054311" height="17" as="geometry"/>
                </mxCell>
                <mxCell id="246" value="35" style="rounded=0;whiteSpace=wrap;html=1;strokeColor=#000000;fontSize=3;fillColor=#fa6800;fontColor=#000000;" vertex="1" parent="1">
                    <mxGeometry x="251.0441269219009" y="286" width="6.328117912054311" height="17" as="geometry"/>
                </mxCell>
                <mxCell id="247" value="36" style="rounded=0;whiteSpace=wrap;html=1;strokeColor=#000000;fontSize=3;fillColor=#fa6800;fontColor=#000000;" vertex="1" parent="1">
                    <mxGeometry x="257.3722448339552" y="286" width="6.328117912054311" height="17" as="geometry"/>
                </mxCell>
                <mxCell id="248" value="37" style="rounded=0;whiteSpace=wrap;html=1;strokeColor=#000000;fontSize=3;fillColor=#fa6800;fontColor=#000000;" vertex="1" parent="1">
                    <mxGeometry x="263.7003627460095" y="286" width="6.328117912054311" height="17" as="geometry"/>
                </mxCell>
                <mxCell id="249" value="38" style="rounded=0;whiteSpace=wrap;html=1;strokeColor=#000000;fontSize=3;fillColor=#fa6800;fontColor=#000000;" vertex="1" parent="1">
                    <mxGeometry x="270.0284806580638" y="286" width="6.328117912054311" height="17" as="geometry"/>
                </mxCell>
                <mxCell id="250" value="39" style="rounded=0;whiteSpace=wrap;html=1;strokeColor=#000000;fontSize=3;fillColor=#1ba1e2;fontColor=#000000;" vertex="1" parent="1">
                    <mxGeometry x="276.35659857011814" y="286" width="6.328117912054311" height="17" as="geometry"/>
                </mxCell>
                <mxCell id="251" value="40" style="rounded=0;whiteSpace=wrap;html=1;strokeColor=#000000;fontSize=3;fillColor=#fa6800;fontColor=#000000;" vertex="1" parent="1">
                    <mxGeometry x="282.6847164821724" y="286" width="6.328117912054311" height="17" as="geometry"/>
                </mxCell>
                <mxCell id="252" value="41" style="rounded=0;whiteSpace=wrap;html=1;strokeColor=#000000;fontSize=3;fillColor=#fa6800;fontColor=#000000;" vertex="1" parent="1">
                    <mxGeometry x="289.0128343942268" y="286" width="6.328117912054311" height="17" as="geometry"/>
                </mxCell>
                <mxCell id="253" value="42" style="rounded=0;whiteSpace=wrap;html=1;strokeColor=#000000;fontSize=3;fillColor=#fa6800;fontColor=#000000;" vertex="1" parent="1">
                    <mxGeometry x="295.3423131918536" y="286" width="6.328117912054311" height="17" as="geometry"/>
                </mxCell>
                <mxCell id="254" value="43" style="rounded=0;whiteSpace=wrap;html=1;strokeColor=#000000;fontSize=3;fillColor=#fa6800;fontColor=#000000;" vertex="1" parent="1">
                    <mxGeometry x="301.67043110390784" y="286" width="6.328117912054311" height="17" as="geometry"/>
                </mxCell>
                <mxCell id="255" value="44" style="rounded=0;whiteSpace=wrap;html=1;strokeColor=#000000;fontSize=3;fillColor=#fa6800;fontColor=#000000;" vertex="1" parent="1">
                    <mxGeometry x="307.9985490159621" y="286" width="6.328117912054311" height="17" as="geometry"/>
                </mxCell>
                <mxCell id="256" value="45" style="rounded=0;whiteSpace=wrap;html=1;strokeColor=#000000;fontSize=3;fillColor=#fa6800;fontColor=#000000;" vertex="1" parent="1">
                    <mxGeometry x="314.3266669280165" y="286" width="6.328117912054311" height="17" as="geometry"/>
                </mxCell>
                <mxCell id="257" value="46" style="rounded=0;whiteSpace=wrap;html=1;strokeColor=#000000;fontSize=3;fillColor=#fa6800;fontColor=#000000;" vertex="1" parent="1">
                    <mxGeometry x="320.6547848400708" y="286" width="6.328117912054311" height="17" as="geometry"/>
                </mxCell>
                <mxCell id="258" value="47" style="rounded=0;whiteSpace=wrap;html=1;strokeColor=#000000;fontSize=3;fillColor=#fa6800;fontColor=#000000;" vertex="1" parent="1">
                    <mxGeometry x="326.9829027521251" y="286" width="6.328117912054311" height="17" as="geometry"/>
                </mxCell>
                <mxCell id="259" value="48" style="rounded=0;whiteSpace=wrap;html=1;strokeColor=#000000;fontSize=3;fillColor=#fa6800;fontColor=#000000;" vertex="1" parent="1">
                    <mxGeometry x="333.3110206641794" y="286" width="6.328117912054311" height="17" as="geometry"/>
                </mxCell>
                <mxCell id="260" value="49" style="rounded=0;whiteSpace=wrap;html=1;strokeColor=#000000;fontSize=3;fillColor=#fa6800;fontColor=#000000;" vertex="1" parent="1">
                    <mxGeometry x="339.63913857623373" y="286" width="6.328117912054311" height="17" as="geometry"/>
                </mxCell>
                <mxCell id="261" value="50" style="rounded=0;whiteSpace=wrap;html=1;strokeColor=#000000;fontSize=3;fillColor=#fa6800;fontColor=#000000;" vertex="1" parent="1">
                    <mxGeometry x="345.96725648828806" y="286" width="6.328117912054311" height="17" as="geometry"/>
                </mxCell>
                <mxCell id="262" value="51" style="rounded=0;whiteSpace=wrap;html=1;strokeColor=#000000;fontSize=3;fillColor=#fa6800;fontColor=#000000;" vertex="1" parent="1">
                    <mxGeometry x="352.2953744003423" y="286" width="6.328117912054311" height="17" as="geometry"/>
                </mxCell>
                <mxCell id="263" value="52" style="rounded=0;whiteSpace=wrap;html=1;strokeColor=#000000;fontSize=3;fillColor=#fa6800;fontColor=#000000;" vertex="1" parent="1">
                    <mxGeometry x="358.62349231239665" y="286" width="6.328117912054311" height="17" as="geometry"/>
                </mxCell>
                <mxCell id="264" value="53" style="rounded=0;whiteSpace=wrap;html=1;strokeColor=#000000;fontSize=3;fillColor=#1ba1e2;fontColor=#000000;" vertex="1" parent="1">
                    <mxGeometry x="364.95161022445103" y="286" width="6.328117912054311" height="17" as="geometry"/>
                </mxCell>
                <mxCell id="265" value="54" style="rounded=0;whiteSpace=wrap;html=1;strokeColor=#000000;fontSize=3;fillColor=#fa6800;fontColor=#000000;" vertex="1" parent="1">
                    <mxGeometry x="371.27972813650524" y="286" width="6.328117912054311" height="17" as="geometry"/>
                </mxCell>
                <mxCell id="266" value="55" style="rounded=0;whiteSpace=wrap;html=1;strokeColor=#000000;fontSize=3;fillColor=#fa6800;fontColor=#000000;" vertex="1" parent="1">
                    <mxGeometry x="377.60784604855957" y="286" width="6.328117912054311" height="17" as="geometry"/>
                </mxCell>
                <mxCell id="267" value="56" style="rounded=0;whiteSpace=wrap;html=1;strokeColor=#000000;fontSize=3;fillColor=#fa6800;fontColor=#000000;" vertex="1" parent="1">
                    <mxGeometry x="383.9359639606139" y="286" width="6.328117912054311" height="17" as="geometry"/>
                </mxCell>
                <mxCell id="268" value="57" style="rounded=0;whiteSpace=wrap;html=1;strokeColor=#000000;fontSize=3;fillColor=#fa6800;fontColor=#000000;" vertex="1" parent="1">
                    <mxGeometry x="390.2640818726682" y="286" width="6.328117912054311" height="17" as="geometry"/>
                </mxCell>
                <mxCell id="269" value="58" style="rounded=0;whiteSpace=wrap;html=1;strokeColor=#000000;fontSize=3;fillColor=#fa6800;fontColor=#000000;" vertex="1" parent="1">
                    <mxGeometry x="396.5921997847224" y="286" width="6.328117912054311" height="17" as="geometry"/>
                </mxCell>
                <mxCell id="270" value="59" style="rounded=0;whiteSpace=wrap;html=1;strokeColor=#000000;fontSize=3;fillColor=#bac8d3;fontColor=#000000;" vertex="1" parent="1">
                    <mxGeometry x="402.91941043972855" y="286" width="6.328117912054311" height="17" as="geometry"/>
                </mxCell>
                <mxCell id="271" value="60" style="rounded=0;whiteSpace=wrap;html=1;strokeColor=#000000;fontSize=3;fillColor=#bac8d3;fontColor=#000000;" vertex="1" parent="1">
                    <mxGeometry x="409.2475283517828" y="286" width="6.328117912054311" height="17" as="geometry"/>
                </mxCell>
                <mxCell id="272" value="61" style="rounded=0;whiteSpace=wrap;html=1;strokeColor=#000000;fontSize=3;fillColor=#bac8d3;fontColor=#000000;" vertex="1" parent="1">
                    <mxGeometry x="415.5756462638372" y="286" width="6.328117912054311" height="17" as="geometry"/>
                </mxCell>
                <mxCell id="273" value="62" style="rounded=0;whiteSpace=wrap;html=1;strokeColor=#000000;fontSize=3;fillColor=#bac8d3;fontColor=#000000;" vertex="1" parent="1">
                    <mxGeometry x="421.90376417589147" y="286" width="6.328117912054311" height="17" as="geometry"/>
                </mxCell>
                <mxCell id="274" value="63" style="rounded=0;whiteSpace=wrap;html=1;strokeColor=#000000;fontSize=3;fillColor=#bac8d3;fontColor=#000000;" vertex="1" parent="1">
                    <mxGeometry x="428.2318820879457" y="286" width="6.328117912054311" height="17" as="geometry"/>
                </mxCell>
                <mxCell id="275" value="0" style="rounded=0;whiteSpace=wrap;html=1;strokeColor=#000000;fontSize=3;fillColor=#fa6800;fontColor=#000000;" vertex="1" parent="1">
                    <mxGeometry x="67.97" y="239" width="6.328117912054311" height="17" as="geometry"/>
                </mxCell>
                <mxCell id="276" value="1" style="rounded=0;whiteSpace=wrap;html=1;strokeColor=#000000;fontSize=3;fillColor=#fa6800;fontColor=#000000;" vertex="1" parent="1">
                    <mxGeometry x="74.29811791205431" y="239" width="6.328117912054311" height="17" as="geometry"/>
                </mxCell>
                <mxCell id="277" value="2" style="rounded=0;whiteSpace=wrap;html=1;strokeColor=#000000;fontSize=3;fillColor=#fa6800;fontColor=#000000;" vertex="1" parent="1">
                    <mxGeometry x="80.62623582410862" y="239" width="6.328117912054311" height="17" as="geometry"/>
                </mxCell>
                <mxCell id="278" value="3" style="rounded=0;whiteSpace=wrap;html=1;strokeColor=#000000;fontSize=3;fillColor=#fa6800;fontColor=#000000;" vertex="1" parent="1">
                    <mxGeometry x="86.95435373616293" y="239" width="6.328117912054311" height="17" as="geometry"/>
                </mxCell>
                <mxCell id="279" value="4" style="rounded=0;whiteSpace=wrap;html=1;strokeColor=#000000;fontSize=3;fillColor=#fa6800;fontColor=#000000;" vertex="1" parent="1">
                    <mxGeometry x="93.28247164821724" y="239" width="6.328117912054311" height="17" as="geometry"/>
                </mxCell>
                <mxCell id="280" value="5" style="rounded=0;whiteSpace=wrap;html=1;strokeColor=#000000;fontSize=3;fillColor=#1ba1e2;fontColor=#000000;" vertex="1" parent="1">
                    <mxGeometry x="99.61058956027155" y="239" width="6.328117912054311" height="17" as="geometry"/>
                </mxCell>
                <mxCell id="281" value="6" style="rounded=0;whiteSpace=wrap;html=1;strokeColor=#000000;fontSize=3;fillColor=#fa6800;fontColor=#000000;" vertex="1" parent="1">
                    <mxGeometry x="105.93870747232586" y="239" width="6.328117912054311" height="17" as="geometry"/>
                </mxCell>
                <mxCell id="282" value="7" style="rounded=0;whiteSpace=wrap;html=1;strokeColor=#000000;fontSize=3;fillColor=#fa6800;fontColor=#000000;" vertex="1" parent="1">
                    <mxGeometry x="112.26682538438018" y="239" width="6.328117912054311" height="17" as="geometry"/>
                </mxCell>
                <mxCell id="283" value="8" style="rounded=0;whiteSpace=wrap;html=1;strokeColor=#000000;fontSize=3;fillColor=#fa6800;fontColor=#000000;" vertex="1" parent="1">
                    <mxGeometry x="118.59494329643448" y="239" width="6.328117912054311" height="17" as="geometry"/>
                </mxCell>
                <mxCell id="284" value="9" style="rounded=0;whiteSpace=wrap;html=1;strokeColor=#000000;fontSize=3;fillColor=#fa6800;fontColor=#000000;" vertex="1" parent="1">
                    <mxGeometry x="124.9230612084888" y="239" width="6.328117912054311" height="17" as="geometry"/>
                </mxCell>
                <mxCell id="285" value="10" style="rounded=0;whiteSpace=wrap;html=1;strokeColor=#000000;fontSize=3;fillColor=#fa6800;fontColor=#000000;" vertex="1" parent="1">
                    <mxGeometry x="131.2511791205431" y="239" width="6.328117912054311" height="17" as="geometry"/>
                </mxCell>
                <mxCell id="286" value="11" style="rounded=0;whiteSpace=wrap;html=1;strokeColor=#000000;fontSize=3;fillColor=#fa6800;fontColor=#000000;" vertex="1" parent="1">
                    <mxGeometry x="137.57929703259742" y="239" width="6.328117912054311" height="17" as="geometry"/>
                </mxCell>
                <mxCell id="287" value="12" style="rounded=0;whiteSpace=wrap;html=1;strokeColor=#000000;fontSize=3;fillColor=#fa6800;fontColor=#000000;" vertex="1" parent="1">
                    <mxGeometry x="143.90741494465175" y="239" width="6.328117912054311" height="17" as="geometry"/>
                </mxCell>
                <mxCell id="288" value="13" style="rounded=0;whiteSpace=wrap;html=1;strokeColor=#000000;fontSize=3;fillColor=#fa6800;fontColor=#000000;" vertex="1" parent="1">
                    <mxGeometry x="150.23553285670607" y="239" width="6.328117912054311" height="17" as="geometry"/>
                </mxCell>
                <mxCell id="289" value="14" style="rounded=0;whiteSpace=wrap;html=1;strokeColor=#000000;fontSize=3;fillColor=#fa6800;fontColor=#000000;" vertex="1" parent="1">
                    <mxGeometry x="156.56365076876034" y="239" width="6.328117912054311" height="17" as="geometry"/>
                </mxCell>
                <mxCell id="290" value="15" style="rounded=0;whiteSpace=wrap;html=1;strokeColor=#000000;fontSize=3;fillColor=#fa6800;fontColor=#000000;" vertex="1" parent="1">
                    <mxGeometry x="162.89176868081466" y="239" width="6.328117912054311" height="17" as="geometry"/>
                </mxCell>
                <mxCell id="291" value="16" style="rounded=0;whiteSpace=wrap;html=1;strokeColor=#000000;fontSize=3;fillColor=#fa6800;fontColor=#000000;" vertex="1" parent="1">
                    <mxGeometry x="169.21988659286896" y="239" width="6.328117912054311" height="17" as="geometry"/>
                </mxCell>
                <mxCell id="292" value="17" style="rounded=0;whiteSpace=wrap;html=1;strokeColor=#000000;fontSize=3;fillColor=#fa6800;fontColor=#000000;" vertex="1" parent="1">
                    <mxGeometry x="175.54800450492328" y="239" width="6.328117912054311" height="17" as="geometry"/>
                </mxCell>
                <mxCell id="293" value="18" style="rounded=0;whiteSpace=wrap;html=1;strokeColor=#000000;fontSize=3;fillColor=#fa6800;fontColor=#000000;" vertex="1" parent="1">
                    <mxGeometry x="181.8761224169776" y="239" width="6.328117912054311" height="17" as="geometry"/>
                </mxCell>
                <mxCell id="294" value="19" style="rounded=0;whiteSpace=wrap;html=1;strokeColor=#000000;fontSize=3;fillColor=#1ba1e2;fontColor=#000000;" vertex="1" parent="1">
                    <mxGeometry x="188.2042403290319" y="239" width="6.328117912054311" height="17" as="geometry"/>
                </mxCell>
                <mxCell id="295" value="20" style="rounded=0;whiteSpace=wrap;html=1;strokeColor=#000000;fontSize=3;fillColor=#fa6800;fontColor=#000000;" vertex="1" parent="1">
                    <mxGeometry x="194.5323582410862" y="239" width="6.328117912054311" height="17" as="geometry"/>
                </mxCell>
                <mxCell id="296" value="21" style="rounded=0;whiteSpace=wrap;html=1;strokeColor=#000000;fontSize=3;fillColor=#fa6800;fontColor=#000000;" vertex="1" parent="1">
                    <mxGeometry x="200.86047615314052" y="239" width="6.328117912054311" height="17" as="geometry"/>
                </mxCell>
                <mxCell id="297" value="22" style="rounded=0;whiteSpace=wrap;html=1;strokeColor=#000000;fontSize=3;fillColor=#fa6800;fontColor=#000000;" vertex="1" parent="1">
                    <mxGeometry x="207.18859406519482" y="239" width="6.328117912054311" height="17" as="geometry"/>
                </mxCell>
                <mxCell id="298" value="23" style="rounded=0;whiteSpace=wrap;html=1;strokeColor=#000000;fontSize=3;fillColor=#fa6800;fontColor=#000000;" vertex="1" parent="1">
                    <mxGeometry x="213.51671197724917" y="239" width="6.328117912054311" height="17" as="geometry"/>
                </mxCell>
                <mxCell id="299" value="24" style="rounded=0;whiteSpace=wrap;html=1;strokeColor=#000000;fontSize=3;fillColor=#fa6800;fontColor=#000000;" vertex="1" parent="1">
                    <mxGeometry x="219.84482988930347" y="239" width="6.328117912054311" height="17" as="geometry"/>
                </mxCell>
                <mxCell id="300" value="25" style="rounded=0;whiteSpace=wrap;html=1;strokeColor=#000000;fontSize=3;fillColor=#fa6800;fontColor=#000000;" vertex="1" parent="1">
                    <mxGeometry x="226.1729478013578" y="239" width="6.328117912054311" height="17" as="geometry"/>
                </mxCell>
                <mxCell id="301" value="26" style="rounded=0;whiteSpace=wrap;html=1;strokeColor=#000000;fontSize=3;fillColor=#6a00ff;fontColor=#000000;" vertex="1" parent="1">
                    <mxGeometry x="232.50106571341212" y="239" width="6.328117912054311" height="17" as="geometry"/>
                </mxCell>
                <mxCell id="302" value="27" style="rounded=0;whiteSpace=wrap;html=1;strokeColor=#000000;fontSize=3;fillColor=#fa6800;fontColor=#000000;" vertex="1" parent="1">
                    <mxGeometry x="238.82918362546638" y="239" width="6.328117912054311" height="17" as="geometry"/>
                </mxCell>
                <mxCell id="303" value="28" style="rounded=0;whiteSpace=wrap;html=1;strokeColor=#000000;fontSize=3;fillColor=#fa6800;fontColor=#000000;" vertex="1" parent="1">
                    <mxGeometry x="245.1573015375207" y="239" width="6.328117912054311" height="17" as="geometry"/>
                </mxCell>
                <mxCell id="304" value="29" style="rounded=0;whiteSpace=wrap;html=1;strokeColor=#000000;fontSize=3;fillColor=#fa6800;fontColor=#000000;" vertex="1" parent="1">
                    <mxGeometry x="251.48541944957503" y="239" width="6.328117912054311" height="17" as="geometry"/>
                </mxCell>
                <mxCell id="305" value="30" style="rounded=0;whiteSpace=wrap;html=1;strokeColor=#000000;fontSize=3;fillColor=#fa6800;fontColor=#000000;" vertex="1" parent="1">
                    <mxGeometry x="257.81353736162936" y="239" width="6.328117912054311" height="17" as="geometry"/>
                </mxCell>
                <mxCell id="306" value="31" style="rounded=0;whiteSpace=wrap;html=1;strokeColor=#000000;fontSize=3;fillColor=#fa6800;fontColor=#000000;" vertex="1" parent="1">
                    <mxGeometry x="264.1416552736836" y="239" width="6.328117912054311" height="17" as="geometry"/>
                </mxCell>
                <mxCell id="307" value="32" style="rounded=0;whiteSpace=wrap;html=1;strokeColor=#000000;fontSize=3;fillColor=#fa6800;fontColor=#000000;" vertex="1" parent="1">
                    <mxGeometry x="270.46977318573795" y="239" width="6.328117912054311" height="17" as="geometry"/>
                </mxCell>
                <mxCell id="308" value="33" style="rounded=0;whiteSpace=wrap;html=1;strokeColor=#000000;fontSize=3;fillColor=#1ba1e2;fontColor=#000000;" vertex="1" parent="1">
                    <mxGeometry x="276.79789109779233" y="239" width="6.328117912054311" height="17" as="geometry"/>
                </mxCell>
                <mxCell id="309" value="34" style="rounded=0;whiteSpace=wrap;html=1;strokeColor=#000000;fontSize=3;fillColor=#fa6800;fontColor=#000000;" vertex="1" parent="1">
                    <mxGeometry x="283.1260090098466" y="239" width="6.328117912054311" height="17" as="geometry"/>
                </mxCell>
                <mxCell id="310" value="35" style="rounded=0;whiteSpace=wrap;html=1;strokeColor=#000000;fontSize=3;fillColor=#fa6800;fontColor=#000000;" vertex="1" parent="1">
                    <mxGeometry x="289.45412692190087" y="239" width="6.328117912054311" height="17" as="geometry"/>
                </mxCell>
                <mxCell id="311" value="36" style="rounded=0;whiteSpace=wrap;html=1;strokeColor=#000000;fontSize=3;fillColor=#fa6800;fontColor=#000000;" vertex="1" parent="1">
                    <mxGeometry x="295.78224483395525" y="239" width="6.328117912054311" height="17" as="geometry"/>
                </mxCell>
                <mxCell id="312" value="37" style="rounded=0;whiteSpace=wrap;html=1;strokeColor=#000000;fontSize=3;fillColor=#fa6800;fontColor=#000000;" vertex="1" parent="1">
                    <mxGeometry x="302.1103627460095" y="239" width="6.328117912054311" height="17" as="geometry"/>
                </mxCell>
                <mxCell id="313" value="38" style="rounded=0;whiteSpace=wrap;html=1;strokeColor=#000000;fontSize=3;fillColor=#fa6800;fontColor=#000000;" vertex="1" parent="1">
                    <mxGeometry x="308.4384806580638" y="239" width="6.328117912054311" height="17" as="geometry"/>
                </mxCell>
                <mxCell id="314" value="39" style="rounded=0;whiteSpace=wrap;html=1;strokeColor=#000000;fontSize=3;fillColor=#fa6800;fontColor=#000000;" vertex="1" parent="1">
                    <mxGeometry x="314.76659857011816" y="239" width="6.328117912054311" height="17" as="geometry"/>
                </mxCell>
                <mxCell id="315" value="40" style="rounded=0;whiteSpace=wrap;html=1;strokeColor=#000000;fontSize=3;fillColor=#fa6800;fontColor=#000000;" vertex="1" parent="1">
                    <mxGeometry x="321.09471648217243" y="239" width="6.328117912054311" height="17" as="geometry"/>
                </mxCell>
                <mxCell id="316" value="41" style="rounded=0;whiteSpace=wrap;html=1;strokeColor=#000000;fontSize=3;fillColor=#fa6800;fontColor=#000000;" vertex="1" parent="1">
                    <mxGeometry x="327.4228343942268" y="239" width="6.328117912054311" height="17" as="geometry"/>
                </mxCell>
                <mxCell id="317" value="42" style="rounded=0;whiteSpace=wrap;html=1;strokeColor=#000000;fontSize=3;fillColor=#fa6800;fontColor=#000000;" vertex="1" parent="1">
                    <mxGeometry x="333.75231319185355" y="239" width="6.328117912054311" height="17" as="geometry"/>
                </mxCell>
                <mxCell id="318" value="43" style="rounded=0;whiteSpace=wrap;html=1;strokeColor=#000000;fontSize=3;fillColor=#fa6800;fontColor=#000000;" vertex="1" parent="1">
                    <mxGeometry x="340.0804311039078" y="239" width="6.328117912054311" height="17" as="geometry"/>
                </mxCell>
                <mxCell id="319" value="44" style="rounded=0;whiteSpace=wrap;html=1;strokeColor=#000000;fontSize=3;fillColor=#fa6800;fontColor=#000000;" vertex="1" parent="1">
                    <mxGeometry x="346.4085490159621" y="239" width="6.328117912054311" height="17" as="geometry"/>
                </mxCell>
                <mxCell id="320" value="45" style="rounded=0;whiteSpace=wrap;html=1;strokeColor=#000000;fontSize=3;fillColor=#fa6800;fontColor=#000000;" vertex="1" parent="1">
                    <mxGeometry x="352.73666692801646" y="239" width="6.328117912054311" height="17" as="geometry"/>
                </mxCell>
                <mxCell id="321" value="46" style="rounded=0;whiteSpace=wrap;html=1;strokeColor=#000000;fontSize=3;fillColor=#fa6800;fontColor=#000000;" vertex="1" parent="1">
                    <mxGeometry x="359.06478484007084" y="239" width="6.328117912054311" height="17" as="geometry"/>
                </mxCell>
                <mxCell id="322" value="47" style="rounded=0;whiteSpace=wrap;html=1;strokeColor=#000000;fontSize=3;fillColor=#1ba1e2;fontColor=#000000;" vertex="1" parent="1">
                    <mxGeometry x="365.3929027521251" y="239" width="6.328117912054311" height="17" as="geometry"/>
                </mxCell>
                <mxCell id="323" value="48" style="rounded=0;whiteSpace=wrap;html=1;strokeColor=#000000;fontSize=3;fillColor=#fa6800;fontColor=#000000;" vertex="1" parent="1">
                    <mxGeometry x="371.7210206641794" y="239" width="6.328117912054311" height="17" as="geometry"/>
                </mxCell>
                <mxCell id="324" value="49" style="rounded=0;whiteSpace=wrap;html=1;strokeColor=#000000;fontSize=3;fillColor=#fa6800;fontColor=#000000;" vertex="1" parent="1">
                    <mxGeometry x="378.04913857623376" y="239" width="6.328117912054311" height="17" as="geometry"/>
                </mxCell>
                <mxCell id="325" value="50" style="rounded=0;whiteSpace=wrap;html=1;strokeColor=#000000;fontSize=3;fillColor=#fa6800;fontColor=#000000;" vertex="1" parent="1">
                    <mxGeometry x="384.377256488288" y="239" width="6.328117912054311" height="17" as="geometry"/>
                </mxCell>
                <mxCell id="326" value="51" style="rounded=0;whiteSpace=wrap;html=1;strokeColor=#000000;fontSize=3;fillColor=#fa6800;fontColor=#000000;" vertex="1" parent="1">
                    <mxGeometry x="390.7053744003423" y="239" width="6.328117912054311" height="17" as="geometry"/>
                </mxCell>
                <mxCell id="327" value="52" style="rounded=0;whiteSpace=wrap;html=1;strokeColor=#000000;fontSize=3;fillColor=#fa6800;fontColor=#000000;" vertex="1" parent="1">
                    <mxGeometry x="397.0334923123967" y="239" width="6.328117912054311" height="17" as="geometry"/>
                </mxCell>
                <mxCell id="329" value="0" style="rounded=0;whiteSpace=wrap;html=1;strokeColor=#000000;fontSize=3;fillColor=#6a00ff;fontColor=#000000;" vertex="1" parent="1">
                    <mxGeometry x="232.5" y="210" width="6.328117912054311" height="17" as="geometry"/>
                </mxCell>
                <mxCell id="330" value="1" style="rounded=0;whiteSpace=wrap;html=1;strokeColor=#000000;fontSize=3;fillColor=#fa6800;fontColor=#000000;" vertex="1" parent="1">
                    <mxGeometry x="238.82811791205432" y="210" width="6.328117912054311" height="17" as="geometry"/>
                </mxCell>
                <mxCell id="331" value="2" style="rounded=0;whiteSpace=wrap;html=1;strokeColor=#000000;fontSize=3;fillColor=#fa6800;fontColor=#000000;" vertex="1" parent="1">
                    <mxGeometry x="245.15623582410862" y="210" width="6.328117912054311" height="17" as="geometry"/>
                </mxCell>
                <mxCell id="332" value="3" style="rounded=0;whiteSpace=wrap;html=1;strokeColor=#000000;fontSize=3;fillColor=#fa6800;fontColor=#000000;" vertex="1" parent="1">
                    <mxGeometry x="251.48435373616292" y="210" width="6.328117912054311" height="17" as="geometry"/>
                </mxCell>
                <mxCell id="333" value="4" style="rounded=0;whiteSpace=wrap;html=1;strokeColor=#000000;fontSize=3;fillColor=#fa6800;fontColor=#000000;" vertex="1" parent="1">
                    <mxGeometry x="257.81247164821724" y="210" width="6.328117912054311" height="17" as="geometry"/>
                </mxCell>
                <mxCell id="334" value="5" style="rounded=0;whiteSpace=wrap;html=1;strokeColor=#000000;fontSize=3;fillColor=#fa6800;fontColor=#000000;" vertex="1" parent="1">
                    <mxGeometry x="264.14058956027156" y="210" width="6.328117912054311" height="17" as="geometry"/>
                </mxCell>
                <mxCell id="335" value="6" style="rounded=0;whiteSpace=wrap;html=1;strokeColor=#000000;fontSize=3;fillColor=#fa6800;fontColor=#000000;" vertex="1" parent="1">
                    <mxGeometry x="270.46870747232583" y="210" width="6.328117912054311" height="17" as="geometry"/>
                </mxCell>
                <mxCell id="336" value="7" style="rounded=0;whiteSpace=wrap;html=1;strokeColor=#000000;fontSize=3;fillColor=#1ba1e2;fontColor=#000000;" vertex="1" parent="1">
                    <mxGeometry x="276.7968253843802" y="210" width="6.328117912054311" height="17" as="geometry"/>
                </mxCell>
                <mxCell id="337" value="8" style="rounded=0;whiteSpace=wrap;html=1;strokeColor=#000000;fontSize=3;fillColor=#fa6800;fontColor=#000000;" vertex="1" parent="1">
                    <mxGeometry x="283.1249432964345" y="210" width="6.328117912054311" height="17" as="geometry"/>
                </mxCell>
                <mxCell id="338" value="9" style="rounded=0;whiteSpace=wrap;html=1;strokeColor=#000000;fontSize=3;fillColor=#fa6800;fontColor=#000000;" vertex="1" parent="1">
                    <mxGeometry x="289.4530612084888" y="210" width="6.328117912054311" height="17" as="geometry"/>
                </mxCell>
                <mxCell id="339" value="10" style="rounded=0;whiteSpace=wrap;html=1;strokeColor=#000000;fontSize=3;fillColor=#fa6800;fontColor=#000000;" vertex="1" parent="1">
                    <mxGeometry x="295.78117912054313" y="210" width="6.328117912054311" height="17" as="geometry"/>
                </mxCell>
                <mxCell id="340" value="11" style="rounded=0;whiteSpace=wrap;html=1;strokeColor=#000000;fontSize=3;fillColor=#fa6800;fontColor=#000000;" vertex="1" parent="1">
                    <mxGeometry x="302.1092970325974" y="210" width="6.328117912054311" height="17" as="geometry"/>
                </mxCell>
                <mxCell id="341" value="12" style="rounded=0;whiteSpace=wrap;html=1;strokeColor=#000000;fontSize=3;fillColor=#fa6800;fontColor=#000000;" vertex="1" parent="1">
                    <mxGeometry x="308.4374149446518" y="210" width="6.328117912054311" height="17" as="geometry"/>
                </mxCell>
                <mxCell id="342" value="13" style="rounded=0;whiteSpace=wrap;html=1;strokeColor=#000000;fontSize=3;fillColor=#fa6800;fontColor=#000000;" vertex="1" parent="1">
                    <mxGeometry x="314.76553285670605" y="210" width="6.328117912054311" height="17" as="geometry"/>
                </mxCell>
                <mxCell id="343" value="14" style="rounded=0;whiteSpace=wrap;html=1;strokeColor=#000000;fontSize=3;fillColor=#fa6800;fontColor=#000000;" vertex="1" parent="1">
                    <mxGeometry x="321.0936507687603" y="210" width="6.328117912054311" height="17" as="geometry"/>
                </mxCell>
                <mxCell id="344" value="15" style="rounded=0;whiteSpace=wrap;html=1;strokeColor=#000000;fontSize=3;fillColor=#fa6800;fontColor=#000000;" vertex="1" parent="1">
                    <mxGeometry x="327.4217686808147" y="210" width="6.328117912054311" height="17" as="geometry"/>
                </mxCell>
                <mxCell id="345" value="16" style="rounded=0;whiteSpace=wrap;html=1;strokeColor=#000000;fontSize=3;fillColor=#fa6800;fontColor=#000000;" vertex="1" parent="1">
                    <mxGeometry x="333.74988659286896" y="210" width="6.328117912054311" height="17" as="geometry"/>
                </mxCell>
                <mxCell id="346" value="17" style="rounded=0;whiteSpace=wrap;html=1;strokeColor=#000000;fontSize=3;fillColor=#fa6800;fontColor=#000000;" vertex="1" parent="1">
                    <mxGeometry x="340.0780045049233" y="210" width="6.328117912054311" height="17" as="geometry"/>
                </mxCell>
                <mxCell id="347" value="18" style="rounded=0;whiteSpace=wrap;html=1;strokeColor=#000000;fontSize=3;fillColor=#fa6800;fontColor=#000000;" vertex="1" parent="1">
                    <mxGeometry x="346.4061224169776" y="210" width="6.328117912054311" height="17" as="geometry"/>
                </mxCell>
                <mxCell id="348" value="19" style="rounded=0;whiteSpace=wrap;html=1;strokeColor=#000000;fontSize=3;fillColor=#fa6800;fontColor=#000000;" vertex="1" parent="1">
                    <mxGeometry x="352.7342403290319" y="210" width="6.328117912054311" height="17" as="geometry"/>
                </mxCell>
                <mxCell id="349" value="20" style="rounded=0;whiteSpace=wrap;html=1;strokeColor=#000000;fontSize=3;fillColor=#fa6800;fontColor=#000000;" vertex="1" parent="1">
                    <mxGeometry x="359.0623582410862" y="210" width="6.328117912054311" height="17" as="geometry"/>
                </mxCell>
                <mxCell id="350" value="21" style="rounded=0;whiteSpace=wrap;html=1;strokeColor=#000000;fontSize=3;fillColor=#1ba1e2;fontColor=#000000;" vertex="1" parent="1">
                    <mxGeometry x="365.3904761531405" y="210" width="6.328117912054311" height="17" as="geometry"/>
                </mxCell>
                <mxCell id="351" value="22" style="rounded=0;whiteSpace=wrap;html=1;strokeColor=#000000;fontSize=3;fillColor=#fa6800;fontColor=#000000;" vertex="1" parent="1">
                    <mxGeometry x="371.7185940651948" y="210" width="6.328117912054311" height="17" as="geometry"/>
                </mxCell>
                <mxCell id="352" value="23" style="rounded=0;whiteSpace=wrap;html=1;strokeColor=#000000;fontSize=3;fillColor=#fa6800;fontColor=#000000;" vertex="1" parent="1">
                    <mxGeometry x="378.0467119772492" y="210" width="6.328117912054311" height="17" as="geometry"/>
                </mxCell>
                <mxCell id="353" value="24" style="rounded=0;whiteSpace=wrap;html=1;strokeColor=#000000;fontSize=3;fillColor=#fa6800;fontColor=#000000;" vertex="1" parent="1">
                    <mxGeometry x="384.37482988930344" y="210" width="6.328117912054311" height="17" as="geometry"/>
                </mxCell>
                <mxCell id="354" value="25" style="rounded=0;whiteSpace=wrap;html=1;strokeColor=#000000;fontSize=3;fillColor=#fa6800;fontColor=#000000;" vertex="1" parent="1">
                    <mxGeometry x="390.7029478013578" y="210" width="6.328117912054311" height="17" as="geometry"/>
                </mxCell>
                <mxCell id="355" value="26" style="rounded=0;whiteSpace=wrap;html=1;strokeColor=#000000;fontSize=3;fillColor=#fa6800;fontColor=#000000;" vertex="1" parent="1">
                    <mxGeometry x="397.0310657134121" y="210" width="6.328117912054311" height="17" as="geometry"/>
                </mxCell>
                <mxCell id="382" value="-26" style="rounded=0;whiteSpace=wrap;html=1;strokeColor=#000000;fontSize=3;fillColor=#fa6800;fontColor=#000000;" vertex="1" parent="1">
                    <mxGeometry x="67.97" y="210" width="6.328117912054311" height="17" as="geometry"/>
                </mxCell>
                <mxCell id="383" value="-25" style="rounded=0;whiteSpace=wrap;html=1;strokeColor=#000000;fontSize=3;fillColor=#fa6800;fontColor=#000000;" vertex="1" parent="1">
                    <mxGeometry x="74.29811791205431" y="210" width="6.328117912054311" height="17" as="geometry"/>
                </mxCell>
                <mxCell id="384" value="-24" style="rounded=0;whiteSpace=wrap;html=1;strokeColor=#000000;fontSize=3;fillColor=#fa6800;fontColor=#000000;" vertex="1" parent="1">
                    <mxGeometry x="80.62623582410862" y="210" width="6.328117912054311" height="17" as="geometry"/>
                </mxCell>
                <mxCell id="386" value="-23" style="rounded=0;whiteSpace=wrap;html=1;strokeColor=#000000;fontSize=3;fillColor=#fa6800;fontColor=#000000;" vertex="1" parent="1">
                    <mxGeometry x="86.95247164821724" y="210" width="6.328117912054311" height="17" as="geometry"/>
                </mxCell>
                <mxCell id="387" value="-22" style="rounded=0;whiteSpace=wrap;html=1;strokeColor=#000000;fontSize=3;fillColor=#fa6800;fontColor=#000000;" vertex="1" parent="1">
                    <mxGeometry x="93.28058956027155" y="210" width="6.328117912054311" height="17" as="geometry"/>
                </mxCell>
                <mxCell id="388" value="-21" style="rounded=0;whiteSpace=wrap;html=1;strokeColor=#000000;fontSize=3;fillColor=#1ba1e2;fontColor=#000000;" vertex="1" parent="1">
                    <mxGeometry x="99.60870747232586" y="210" width="6.328117912054311" height="17" as="geometry"/>
                </mxCell>
                <mxCell id="389" value="-20" style="rounded=0;whiteSpace=wrap;html=1;strokeColor=#000000;fontSize=3;fillColor=#fa6800;fontColor=#000000;" vertex="1" parent="1">
                    <mxGeometry x="105.93682538438019" y="210" width="6.328117912054311" height="17" as="geometry"/>
                </mxCell>
                <mxCell id="390" value="-19" style="rounded=0;whiteSpace=wrap;html=1;strokeColor=#000000;fontSize=3;fillColor=#fa6800;fontColor=#000000;" vertex="1" parent="1">
                    <mxGeometry x="112.26494329643448" y="210" width="6.328117912054311" height="17" as="geometry"/>
                </mxCell>
                <mxCell id="391" value="-18" style="rounded=0;whiteSpace=wrap;html=1;strokeColor=#000000;fontSize=3;fillColor=#fa6800;fontColor=#000000;" vertex="1" parent="1">
                    <mxGeometry x="118.5930612084888" y="210" width="6.328117912054311" height="17" as="geometry"/>
                </mxCell>
                <mxCell id="392" value="-17" style="rounded=0;whiteSpace=wrap;html=1;strokeColor=#000000;fontSize=3;fillColor=#fa6800;fontColor=#000000;" vertex="1" parent="1">
                    <mxGeometry x="124.9211791205431" y="210" width="6.328117912054311" height="17" as="geometry"/>
                </mxCell>
                <mxCell id="393" value="-16" style="rounded=0;whiteSpace=wrap;html=1;strokeColor=#000000;fontSize=3;fillColor=#fa6800;fontColor=#000000;" vertex="1" parent="1">
                    <mxGeometry x="131.2492970325974" y="210" width="6.328117912054311" height="17" as="geometry"/>
                </mxCell>
                <mxCell id="394" value="-15" style="rounded=0;whiteSpace=wrap;html=1;strokeColor=#000000;fontSize=3;fillColor=#fa6800;fontColor=#000000;" vertex="1" parent="1">
                    <mxGeometry x="137.57741494465174" y="210" width="6.328117912054311" height="17" as="geometry"/>
                </mxCell>
                <mxCell id="395" value="-14" style="rounded=0;whiteSpace=wrap;html=1;strokeColor=#000000;fontSize=3;fillColor=#fa6800;fontColor=#000000;" vertex="1" parent="1">
                    <mxGeometry x="143.90553285670606" y="210" width="6.328117912054311" height="17" as="geometry"/>
                </mxCell>
                <mxCell id="396" value="-13" style="rounded=0;whiteSpace=wrap;html=1;strokeColor=#000000;fontSize=3;fillColor=#fa6800;fontColor=#000000;" vertex="1" parent="1">
                    <mxGeometry x="150.23365076876033" y="210" width="6.328117912054311" height="17" as="geometry"/>
                </mxCell>
                <mxCell id="397" value="-12" style="rounded=0;whiteSpace=wrap;html=1;strokeColor=#000000;fontSize=3;fillColor=#fa6800;fontColor=#000000;" vertex="1" parent="1">
                    <mxGeometry x="156.56176868081465" y="210" width="6.328117912054311" height="17" as="geometry"/>
                </mxCell>
                <mxCell id="398" value="-11" style="rounded=0;whiteSpace=wrap;html=1;strokeColor=#000000;fontSize=3;fillColor=#fa6800;fontColor=#000000;" vertex="1" parent="1">
                    <mxGeometry x="162.88988659286895" y="210" width="6.328117912054311" height="17" as="geometry"/>
                </mxCell>
                <mxCell id="399" value="-10" style="rounded=0;whiteSpace=wrap;html=1;strokeColor=#000000;fontSize=3;fillColor=#fa6800;fontColor=#000000;" vertex="1" parent="1">
                    <mxGeometry x="169.21800450492327" y="210" width="6.328117912054311" height="17" as="geometry"/>
                </mxCell>
                <mxCell id="400" value="-9" style="rounded=0;whiteSpace=wrap;html=1;strokeColor=#000000;fontSize=3;fillColor=#fa6800;fontColor=#000000;" vertex="1" parent="1">
                    <mxGeometry x="175.5461224169776" y="210" width="6.328117912054311" height="17" as="geometry"/>
                </mxCell>
                <mxCell id="401" value="-8" style="rounded=0;whiteSpace=wrap;html=1;strokeColor=#000000;fontSize=3;fillColor=#fa6800;fontColor=#000000;" vertex="1" parent="1">
                    <mxGeometry x="181.8742403290319" y="210" width="6.328117912054311" height="17" as="geometry"/>
                </mxCell>
                <mxCell id="402" value="-7" style="rounded=0;whiteSpace=wrap;html=1;strokeColor=#000000;fontSize=3;fillColor=#1ba1e2;fontColor=#000000;" vertex="1" parent="1">
                    <mxGeometry x="188.2023582410862" y="210" width="6.328117912054311" height="17" as="geometry"/>
                </mxCell>
                <mxCell id="403" value="-6" style="rounded=0;whiteSpace=wrap;html=1;strokeColor=#000000;fontSize=3;fillColor=#fa6800;fontColor=#000000;" vertex="1" parent="1">
                    <mxGeometry x="194.5304761531405" y="210" width="6.328117912054311" height="17" as="geometry"/>
                </mxCell>
                <mxCell id="404" value="-5" style="rounded=0;whiteSpace=wrap;html=1;strokeColor=#000000;fontSize=3;fillColor=#fa6800;fontColor=#000000;" vertex="1" parent="1">
                    <mxGeometry x="200.8585940651948" y="210" width="6.328117912054311" height="17" as="geometry"/>
                </mxCell>
                <mxCell id="405" value="-4" style="rounded=0;whiteSpace=wrap;html=1;strokeColor=#000000;fontSize=3;fillColor=#fa6800;fontColor=#000000;" vertex="1" parent="1">
                    <mxGeometry x="207.18671197724916" y="210" width="6.328117912054311" height="17" as="geometry"/>
                </mxCell>
                <mxCell id="406" value="2" style="rounded=0;whiteSpace=wrap;html=1;strokeColor=#000000;fontSize=3;fillColor=#fa6800;fontColor=#000000;" vertex="1" parent="1">
                    <mxGeometry x="219.84482988930347" y="210" width="6.328117912054311" height="17" as="geometry"/>
                </mxCell>
                <mxCell id="407" value="-1" style="rounded=0;whiteSpace=wrap;html=1;strokeColor=#000000;fontSize=3;fillColor=#fa6800;fontColor=#000000;" vertex="1" parent="1">
                    <mxGeometry x="226.1729478013578" y="210" width="6.328117912054311" height="17" as="geometry"/>
                </mxCell>
                <mxCell id="408" value="-3" style="rounded=0;whiteSpace=wrap;html=1;strokeColor=#000000;fontSize=3;fillColor=#fa6800;fontColor=#000000;" vertex="1" parent="1">
                    <mxGeometry x="213.51671197724917" y="210" width="6.328117912054311" height="17" as="geometry"/>
                </mxCell>
                <mxCell id="409" value="" style="rounded=0;whiteSpace=wrap;html=1;strokeColor=#000000;fontSize=3;fillColor=#1ba1e2;fontColor=#000000;" vertex="1" parent="1">
                    <mxGeometry x="70.19870747232586" y="181" width="6.328117912054311" height="17" as="geometry"/>
                </mxCell>
                <mxCell id="411" value="" style="rounded=0;whiteSpace=wrap;html=1;strokeColor=#000000;fontSize=3;fillColor=#6a00ff;fontColor=#000000;" vertex="1" parent="1">
                    <mxGeometry x="105.94" y="181" width="6.328117912054311" height="17" as="geometry"/>
                </mxCell>
                <mxCell id="412" value="&lt;font style=&quot;font-size: 11px;&quot;&gt;pilot&lt;/font&gt;" style="text;html=1;align=center;verticalAlign=middle;resizable=0;points=[];autosize=1;strokeColor=none;fillColor=none;fontSize=3;fontColor=#000000;" vertex="1" parent="1">
                    <mxGeometry x="70.2" y="177" width="38" height="25" as="geometry"/>
                </mxCell>
                <mxCell id="413" value="&lt;font style=&quot;font-size: 11px;&quot;&gt;DC&lt;/font&gt;" style="text;html=1;align=center;verticalAlign=middle;resizable=0;points=[];autosize=1;strokeColor=none;fillColor=none;fontSize=3;fontColor=#000000;" vertex="1" parent="1">
                    <mxGeometry x="106.26" y="177" width="34" height="25" as="geometry"/>
                </mxCell>
                <mxCell id="479" value="d0" style="rounded=0;whiteSpace=wrap;html=1;strokeColor=#000000;fontSize=3;fillColor=#fa6800;fontColor=#000000;" vertex="1" parent="1">
                    <mxGeometry x="67.97" y="262" width="6.328117912054311" height="17" as="geometry"/>
                </mxCell>
                <mxCell id="480" value="1" style="rounded=0;whiteSpace=wrap;html=1;strokeColor=#000000;fontSize=3;fillColor=#fa6800;fontColor=#000000;" vertex="1" parent="1">
                    <mxGeometry x="74.29811791205431" y="262" width="6.328117912054311" height="17" as="geometry"/>
                </mxCell>
                <mxCell id="481" value="2" style="rounded=0;whiteSpace=wrap;html=1;strokeColor=#000000;fontSize=3;fillColor=#fa6800;fontColor=#000000;" vertex="1" parent="1">
                    <mxGeometry x="80.62623582410862" y="262" width="6.328117912054311" height="17" as="geometry"/>
                </mxCell>
                <mxCell id="482" value="3" style="rounded=0;whiteSpace=wrap;html=1;strokeColor=#000000;fontSize=3;fillColor=#fa6800;fontColor=#000000;" vertex="1" parent="1">
                    <mxGeometry x="86.95435373616293" y="262" width="6.328117912054311" height="17" as="geometry"/>
                </mxCell>
                <mxCell id="483" value="d4" style="rounded=0;whiteSpace=wrap;html=1;strokeColor=#000000;fontSize=3;fillColor=#fa6800;fontColor=#000000;" vertex="1" parent="1">
                    <mxGeometry x="93.28247164821724" y="262" width="6.328117912054311" height="17" as="geometry"/>
                </mxCell>
                <mxCell id="484" value="" style="rounded=0;whiteSpace=wrap;html=1;strokeColor=#000000;fontSize=3;fillColor=#1ba1e2;fontColor=#000000;" vertex="1" parent="1">
                    <mxGeometry x="99.61058956027155" y="262" width="6.328117912054311" height="17" as="geometry"/>
                </mxCell>
                <mxCell id="498" value="" style="rounded=0;whiteSpace=wrap;html=1;strokeColor=#000000;fontSize=3;fillColor=#1ba1e2;fontColor=#000000;" vertex="1" parent="1">
                    <mxGeometry x="188.2042403290319" y="262" width="6.328117912054311" height="17" as="geometry"/>
                </mxCell>
                <mxCell id="499" value="d18" style="rounded=0;whiteSpace=wrap;html=1;strokeColor=#000000;fontSize=3;fillColor=#fa6800;fontColor=#000000;" vertex="1" parent="1">
                    <mxGeometry x="194.5323582410862" y="262" width="6.328117912054311" height="17" as="geometry"/>
                </mxCell>
                <mxCell id="500" value="19" style="rounded=0;whiteSpace=wrap;html=1;strokeColor=#000000;fontSize=3;fillColor=#fa6800;fontColor=#000000;" vertex="1" parent="1">
                    <mxGeometry x="200.86047615314052" y="262" width="6.328117912054311" height="17" as="geometry"/>
                </mxCell>
                <mxCell id="501" value="20" style="rounded=0;whiteSpace=wrap;html=1;strokeColor=#000000;fontSize=3;fillColor=#fa6800;fontColor=#000000;" vertex="1" parent="1">
                    <mxGeometry x="207.18859406519482" y="262" width="6.328117912054311" height="17" as="geometry"/>
                </mxCell>
                <mxCell id="502" value="21" style="rounded=0;whiteSpace=wrap;html=1;strokeColor=#000000;fontSize=3;fillColor=#fa6800;fontColor=#000000;" vertex="1" parent="1">
                    <mxGeometry x="213.51671197724917" y="262" width="6.328117912054311" height="17" as="geometry"/>
                </mxCell>
                <mxCell id="503" value="22" style="rounded=0;whiteSpace=wrap;html=1;strokeColor=#000000;fontSize=3;fillColor=#fa6800;fontColor=#000000;" vertex="1" parent="1">
                    <mxGeometry x="219.84482988930347" y="262" width="6.328117912054311" height="17" as="geometry"/>
                </mxCell>
                <mxCell id="504" value="d23" style="rounded=0;whiteSpace=wrap;html=1;strokeColor=#000000;fontSize=3;fillColor=#fa6800;fontColor=#000000;" vertex="1" parent="1">
                    <mxGeometry x="226.1729478013578" y="262" width="6.328117912054311" height="17" as="geometry"/>
                </mxCell>
                <mxCell id="505" value="" style="rounded=0;whiteSpace=wrap;html=1;strokeColor=#000000;fontSize=3;fillColor=#6a00ff;fontColor=#000000;" vertex="1" parent="1">
                    <mxGeometry x="232.50106571341212" y="262" width="6.328117912054311" height="17" as="geometry"/>
                </mxCell>
                <mxCell id="506" value="d24" style="rounded=0;whiteSpace=wrap;html=1;strokeColor=#000000;fontSize=3;fillColor=#fa6800;fontColor=#000000;" vertex="1" parent="1">
                    <mxGeometry x="238.82918362546638" y="262" width="6.328117912054311" height="17" as="geometry"/>
                </mxCell>
                <mxCell id="507" value="25" style="rounded=0;whiteSpace=wrap;html=1;strokeColor=#000000;fontSize=3;fillColor=#fa6800;fontColor=#000000;" vertex="1" parent="1">
                    <mxGeometry x="245.1573015375207" y="262" width="6.328117912054311" height="17" as="geometry"/>
                </mxCell>
                <mxCell id="508" value="256" style="rounded=0;whiteSpace=wrap;html=1;strokeColor=#000000;fontSize=3;fillColor=#fa6800;fontColor=#000000;" vertex="1" parent="1">
                    <mxGeometry x="251.48541944957503" y="262" width="6.328117912054311" height="17" as="geometry"/>
                </mxCell>
                <mxCell id="509" value="27" style="rounded=0;whiteSpace=wrap;html=1;strokeColor=#000000;fontSize=3;fillColor=#fa6800;fontColor=#000000;" vertex="1" parent="1">
                    <mxGeometry x="257.81353736162936" y="262" width="6.328117912054311" height="17" as="geometry"/>
                </mxCell>
                <mxCell id="510" value="28" style="rounded=0;whiteSpace=wrap;html=1;strokeColor=#000000;fontSize=3;fillColor=#fa6800;fontColor=#000000;" vertex="1" parent="1">
                    <mxGeometry x="264.1416552736836" y="262" width="6.328117912054311" height="17" as="geometry"/>
                </mxCell>
                <mxCell id="511" value="d29" style="rounded=0;whiteSpace=wrap;html=1;strokeColor=#000000;fontSize=3;fillColor=#fa6800;fontColor=#000000;" vertex="1" parent="1">
                    <mxGeometry x="270.46977318573795" y="262" width="6.328117912054311" height="17" as="geometry"/>
                </mxCell>
                <mxCell id="512" value="" style="rounded=0;whiteSpace=wrap;html=1;strokeColor=#000000;fontSize=3;fillColor=#1ba1e2;fontColor=#000000;" vertex="1" parent="1">
                    <mxGeometry x="276.79789109779233" y="262" width="6.328117912054311" height="17" as="geometry"/>
                </mxCell>
                <mxCell id="513" value="d30" style="rounded=0;whiteSpace=wrap;html=1;strokeColor=#000000;fontSize=3;fillColor=#fa6800;fontColor=#000000;" vertex="1" parent="1">
                    <mxGeometry x="283.1260090098466" y="262" width="6.328117912054311" height="17" as="geometry"/>
                </mxCell>
                <mxCell id="514" value="31" style="rounded=0;whiteSpace=wrap;html=1;strokeColor=#000000;fontSize=3;fillColor=#fa6800;fontColor=#000000;" vertex="1" parent="1">
                    <mxGeometry x="289.45412692190087" y="262" width="6.328117912054311" height="17" as="geometry"/>
                </mxCell>
                <mxCell id="515" value="32" style="rounded=0;whiteSpace=wrap;html=1;strokeColor=#000000;fontSize=3;fillColor=#fa6800;fontColor=#000000;" vertex="1" parent="1">
                    <mxGeometry x="295.78224483395525" y="262" width="6.328117912054311" height="17" as="geometry"/>
                </mxCell>
                <mxCell id="516" value="33" style="rounded=0;whiteSpace=wrap;html=1;strokeColor=#000000;fontSize=3;fillColor=#fa6800;fontColor=#000000;" vertex="1" parent="1">
                    <mxGeometry x="302.1103627460095" y="262" width="6.328117912054311" height="17" as="geometry"/>
                </mxCell>
                <mxCell id="517" value="34" style="rounded=0;whiteSpace=wrap;html=1;strokeColor=#000000;fontSize=3;fillColor=#fa6800;fontColor=#000000;" vertex="1" parent="1">
                    <mxGeometry x="308.4384806580638" y="262" width="6.328117912054311" height="17" as="geometry"/>
                </mxCell>
                <mxCell id="518" value="35" style="rounded=0;whiteSpace=wrap;html=1;strokeColor=#000000;fontSize=3;fillColor=#fa6800;fontColor=#000000;" vertex="1" parent="1">
                    <mxGeometry x="314.76659857011816" y="262" width="6.328117912054311" height="17" as="geometry"/>
                </mxCell>
                <mxCell id="519" value="36" style="rounded=0;whiteSpace=wrap;html=1;strokeColor=#000000;fontSize=3;fillColor=#fa6800;fontColor=#000000;" vertex="1" parent="1">
                    <mxGeometry x="321.09471648217243" y="262" width="6.328117912054311" height="17" as="geometry"/>
                </mxCell>
                <mxCell id="520" value="37" style="rounded=0;whiteSpace=wrap;html=1;strokeColor=#000000;fontSize=3;fillColor=#fa6800;fontColor=#000000;" vertex="1" parent="1">
                    <mxGeometry x="327.4228343942268" y="262" width="6.328117912054311" height="17" as="geometry"/>
                </mxCell>
                <mxCell id="521" value="38" style="rounded=0;whiteSpace=wrap;html=1;strokeColor=#000000;fontSize=3;fillColor=#fa6800;fontColor=#000000;" vertex="1" parent="1">
                    <mxGeometry x="333.75231319185355" y="262" width="6.328117912054311" height="17" as="geometry"/>
                </mxCell>
                <mxCell id="522" value="39" style="rounded=0;whiteSpace=wrap;html=1;strokeColor=#000000;fontSize=3;fillColor=#fa6800;fontColor=#000000;" vertex="1" parent="1">
                    <mxGeometry x="340.0804311039078" y="262" width="6.328117912054311" height="17" as="geometry"/>
                </mxCell>
                <mxCell id="523" value="40" style="rounded=0;whiteSpace=wrap;html=1;strokeColor=#000000;fontSize=3;fillColor=#fa6800;fontColor=#000000;" vertex="1" parent="1">
                    <mxGeometry x="346.4085490159621" y="262" width="6.328117912054311" height="17" as="geometry"/>
                </mxCell>
                <mxCell id="524" value="41" style="rounded=0;whiteSpace=wrap;html=1;strokeColor=#000000;fontSize=3;fillColor=#fa6800;fontColor=#000000;" vertex="1" parent="1">
                    <mxGeometry x="352.73666692801646" y="262" width="6.328117912054311" height="17" as="geometry"/>
                </mxCell>
                <mxCell id="525" value="42" style="rounded=0;whiteSpace=wrap;html=1;strokeColor=#000000;fontSize=3;fillColor=#fa6800;fontColor=#000000;" vertex="1" parent="1">
                    <mxGeometry x="359.06478484007084" y="262" width="6.328117912054311" height="17" as="geometry"/>
                </mxCell>
                <mxCell id="526" value="" style="rounded=0;whiteSpace=wrap;html=1;strokeColor=#000000;fontSize=3;fillColor=#1ba1e2;fontColor=#000000;" vertex="1" parent="1">
                    <mxGeometry x="365.3929027521251" y="262" width="6.328117912054311" height="17" as="geometry"/>
                </mxCell>
                <mxCell id="527" value="43" style="rounded=0;whiteSpace=wrap;html=1;strokeColor=#000000;fontSize=3;fillColor=#fa6800;fontColor=#000000;" vertex="1" parent="1">
                    <mxGeometry x="371.7210206641794" y="262" width="6.328117912054311" height="17" as="geometry"/>
                </mxCell>
                <mxCell id="528" value="44" style="rounded=0;whiteSpace=wrap;html=1;strokeColor=#000000;fontSize=3;fillColor=#fa6800;fontColor=#000000;" vertex="1" parent="1">
                    <mxGeometry x="378.04913857623376" y="262" width="6.328117912054311" height="17" as="geometry"/>
                </mxCell>
                <mxCell id="529" value="45" style="rounded=0;whiteSpace=wrap;html=1;strokeColor=#000000;fontSize=3;fillColor=#fa6800;fontColor=#000000;" vertex="1" parent="1">
                    <mxGeometry x="384.377256488288" y="262" width="6.328117912054311" height="17" as="geometry"/>
                </mxCell>
                <mxCell id="530" value="46" style="rounded=0;whiteSpace=wrap;html=1;strokeColor=#000000;fontSize=3;fillColor=#fa6800;fontColor=#000000;" vertex="1" parent="1">
                    <mxGeometry x="390.7053744003423" y="262" width="6.328117912054311" height="17" as="geometry"/>
                </mxCell>
                <mxCell id="531" value="47" style="rounded=0;whiteSpace=wrap;html=1;strokeColor=#000000;fontSize=3;fillColor=#fa6800;fontColor=#000000;" vertex="1" parent="1">
                    <mxGeometry x="397.0334923123967" y="262" width="6.328117912054311" height="17" as="geometry"/>
                </mxCell>
                <mxCell id="544" value="d5" style="rounded=0;whiteSpace=wrap;html=1;strokeColor=#000000;fontSize=3;fillColor=#fa6800;fontColor=#000000;" vertex="1" parent="1">
                    <mxGeometry x="106.26058956027155" y="262" width="6.328117912054311" height="17" as="geometry"/>
                </mxCell>
                <mxCell id="545" value="6" style="rounded=0;whiteSpace=wrap;html=1;strokeColor=#000000;fontSize=3;fillColor=#fa6800;fontColor=#000000;" vertex="1" parent="1">
                    <mxGeometry x="112.58870747232586" y="262" width="6.328117912054311" height="17" as="geometry"/>
                </mxCell>
                <mxCell id="546" value="7" style="rounded=0;whiteSpace=wrap;html=1;strokeColor=#000000;fontSize=3;fillColor=#fa6800;fontColor=#000000;" vertex="1" parent="1">
                    <mxGeometry x="118.91682538438019" y="262" width="6.328117912054311" height="17" as="geometry"/>
                </mxCell>
                <mxCell id="547" value="8" style="rounded=0;whiteSpace=wrap;html=1;strokeColor=#000000;fontSize=3;fillColor=#fa6800;fontColor=#000000;" vertex="1" parent="1">
                    <mxGeometry x="125.24494329643449" y="262" width="6.328117912054311" height="17" as="geometry"/>
                </mxCell>
                <mxCell id="548" value="9" style="rounded=0;whiteSpace=wrap;html=1;strokeColor=#000000;fontSize=3;fillColor=#fa6800;fontColor=#000000;" vertex="1" parent="1">
                    <mxGeometry x="131.5730612084888" y="262" width="6.328117912054311" height="17" as="geometry"/>
                </mxCell>
                <mxCell id="549" value="10" style="rounded=0;whiteSpace=wrap;html=1;strokeColor=#000000;fontSize=3;fillColor=#fa6800;fontColor=#000000;" vertex="1" parent="1">
                    <mxGeometry x="137.9011791205431" y="262" width="6.328117912054311" height="17" as="geometry"/>
                </mxCell>
                <mxCell id="550" value="11" style="rounded=0;whiteSpace=wrap;html=1;strokeColor=#000000;fontSize=3;fillColor=#fa6800;fontColor=#000000;" vertex="1" parent="1">
                    <mxGeometry x="144.22929703259743" y="262" width="6.328117912054311" height="17" as="geometry"/>
                </mxCell>
                <mxCell id="551" value="12" style="rounded=0;whiteSpace=wrap;html=1;strokeColor=#000000;fontSize=3;fillColor=#fa6800;fontColor=#000000;" vertex="1" parent="1">
                    <mxGeometry x="150.55741494465175" y="262" width="6.328117912054311" height="17" as="geometry"/>
                </mxCell>
                <mxCell id="552" value="13" style="rounded=0;whiteSpace=wrap;html=1;strokeColor=#000000;fontSize=3;fillColor=#fa6800;fontColor=#000000;" vertex="1" parent="1">
                    <mxGeometry x="156.88553285670608" y="262" width="6.328117912054311" height="17" as="geometry"/>
                </mxCell>
                <mxCell id="553" value="14" style="rounded=0;whiteSpace=wrap;html=1;strokeColor=#000000;fontSize=3;fillColor=#fa6800;fontColor=#000000;" vertex="1" parent="1">
                    <mxGeometry x="163.21365076876035" y="262" width="6.328117912054311" height="17" as="geometry"/>
                </mxCell>
                <mxCell id="554" value="15" style="rounded=0;whiteSpace=wrap;html=1;strokeColor=#000000;fontSize=3;fillColor=#fa6800;fontColor=#000000;" vertex="1" parent="1">
                    <mxGeometry x="169.54176868081467" y="262" width="6.328117912054311" height="17" as="geometry"/>
                </mxCell>
                <mxCell id="555" value="16" style="rounded=0;whiteSpace=wrap;html=1;strokeColor=#000000;fontSize=3;fillColor=#fa6800;fontColor=#000000;" vertex="1" parent="1">
                    <mxGeometry x="175.86988659286897" y="262" width="6.328117912054311" height="17" as="geometry"/>
                </mxCell>
                <mxCell id="556" value="d17" style="rounded=0;whiteSpace=wrap;html=1;strokeColor=#000000;fontSize=3;fillColor=#fa6800;fontColor=#000000;" vertex="1" parent="1">
                    <mxGeometry x="181.8761224169776" y="262" width="6.328117912054311" height="17" as="geometry"/>
                </mxCell>
            </root>
        </mxGraphModel>
    </diagram>
</mxfile>